<?xml version="1.0" encoding="UTF-8" standalone="no"?>
<svg
   xmlns:dc="http://purl.org/dc/elements/1.1/"
   xmlns:cc="http://creativecommons.org/ns#"
   xmlns:rdf="http://www.w3.org/1999/02/22-rdf-syntax-ns#"
   xmlns:svg="http://www.w3.org/2000/svg"
   xmlns="http://www.w3.org/2000/svg"
   xmlns:sodipodi="http://sodipodi.sourceforge.net/DTD/sodipodi-0.dtd"
   xmlns:inkscape="http://www.inkscape.org/namespaces/inkscape"
   version="1.1"
   id="svg2"
   xml:space="preserve"
   width="1087.3879"
   height="125.52"
   viewBox="0 0 1087.3879 125.52"
   sodipodi:docname="Olympus-dashboard-logo.ai"><metadata
     id="metadata8"><rdf:RDF><cc:Work
         rdf:about=""><dc:format>image/svg+xml</dc:format><dc:type
           rdf:resource="http://purl.org/dc/dcmitype/StillImage" /></cc:Work></rdf:RDF></metadata><defs
     id="defs6"><clipPath
       clipPathUnits="userSpaceOnUse"
       id="clipPath18"><path
         d="M 0,94.14 H 815.541 V 0 H 0 Z"
         id="path16" /></clipPath><linearGradient
       x1="0"
       y1="0"
       x2="1"
       y2="0"
       gradientUnits="userSpaceOnUse"
       gradientTransform="matrix(0,-68.190002,68.190002,0,503.285,81.165001)"
       spreadMethod="pad"
       id="linearGradient64"><stop
         style="stop-opacity:1;stop-color:#f9b548"
         offset="0"
         id="stop60" /><stop
         style="stop-opacity:1;stop-color:#ff5142"
         offset="1"
         id="stop62" /></linearGradient><clipPath
       clipPathUnits="userSpaceOnUse"
       id="clipPath74"><path
         d="M 0,94.14 H 815.541 V 0 H 0 Z"
         id="path72" /></clipPath><linearGradient
       x1="0"
       y1="0"
       x2="1"
       y2="0"
       gradientUnits="userSpaceOnUse"
       gradientTransform="matrix(0,-90.761917,-90.761917,0,49.754761,92.26622)"
       spreadMethod="pad"
       id="linearGradient98"><stop
         style="stop-opacity:1;stop-color:#e84646"
         offset="0"
         id="stop92" /><stop
         style="stop-opacity:1;stop-color:#e84646"
         offset="0.00000034"
         id="stop94" /><stop
         style="stop-opacity:1;stop-color:#f2ab28"
         offset="1"
         id="stop96" /></linearGradient><linearGradient
       x1="0"
       y1="0"
       x2="1"
       y2="0"
       gradientUnits="userSpaceOnUse"
       gradientTransform="matrix(0,60.299301,60.299301,0,49.754768,16.735611)"
       spreadMethod="pad"
       id="linearGradient120"><stop
         style="stop-opacity:1;stop-color:#e84646"
         offset="0"
         id="stop114" /><stop
         style="stop-opacity:1;stop-color:#e84646"
         offset="0.00000034"
         id="stop116" /><stop
         style="stop-opacity:1;stop-color:#f2ab28"
         offset="1"
         id="stop118" /></linearGradient><clipPath
       clipPathUnits="userSpaceOnUse"
       id="clipPath130"><path
         d="M 0,94.14 H 815.541 V 0 H 0 Z"
         id="path128" /></clipPath><linearGradient
       x1="0"
       y1="0"
       x2="1"
       y2="0"
       gradientUnits="userSpaceOnUse"
       gradientTransform="matrix(61.2993,0,0,61.2993,-60.7992,94.1398)"
       spreadMethod="pad"
       id="linearGradient138"><stop
         style="stop-opacity:1;stop-color:#ffffff"
         offset="0"
         id="stop134" /><stop
         style="stop-opacity:1;stop-color:#1d1d1b"
         offset="1"
         id="stop136" /></linearGradient><linearGradient
       x1="0"
       y1="0"
       x2="1"
       y2="0"
       gradientUnits="userSpaceOnUse"
       gradientTransform="matrix(0,-61.295345,-61.295345,0,49.754768,77.532928)"
       spreadMethod="pad"
       id="linearGradient160"><stop
         style="stop-opacity:1;stop-color:#e84646"
         offset="0"
         id="stop154" /><stop
         style="stop-opacity:1;stop-color:#e84646"
         offset="0.00000034"
         id="stop156" /><stop
         style="stop-opacity:1;stop-color:#f2ab28"
         offset="1"
         id="stop158" /></linearGradient><clipPath
       clipPathUnits="userSpaceOnUse"
       id="clipPath170"><path
         d="M 0,94.14 H 815.541 V 0 H 0 Z"
         id="path168" /></clipPath></defs><sodipodi:namedview
     pagecolor="#ffffff"
     bordercolor="#666666"
     borderopacity="1"
     objecttolerance="10"
     gridtolerance="10"
     guidetolerance="10"
     inkscape:pageopacity="0"
     inkscape:pageshadow="2"
     inkscape:window-width="640"
     inkscape:window-height="480"
     id="namedview4" /><g
     id="g10"
     inkscape:groupmode="layer"
     inkscape:label="Olympus-dashboard-logo"
     transform="matrix(1.3333333,0,0,-1.3333333,0,125.52)"><g
       id="g12"><g
         id="g14"
         clip-path="url(#clipPath18)"><g
           id="g20"
           transform="translate(119.54,47.2313)"><path
             d="m 0,0 c 0,-0.77 0.06,-1.371 0.12,-2 1.3,-13.18 14.2,-17.57 23.22,-12.61 6.09,3.34 8.39,9 7.94,15.75 C 30.46,13.48 18.99,19.24 8.92,14.74 2.66,11.97 0.18,6.48 0,0 m -10.61,1.44 c 0.22,1.36 0.37,2.72 0.65,4.06 2.306,11.933 12.756,20.55 24.91,20.54 10.73,0.14 19.07,-4.26 24,-13.81 7.43,-14.391 1,-33.72 -16.81,-37.78 -16.75,-3.821 -28.43,6.4 -31.59,17.75 -0.48,1.7 -0.63,3.5 -0.94,5.25 0,0.3 -0.14,0.59 -0.21,0.889 z"
             style="fill:#ffffff;fill-opacity:1;fill-rule:nonzero;stroke:none"
             id="path22" /></g><g
           id="g24"
           transform="translate(322.02,73.1586)"><path
             d="m 0,0 v -52.24 h -10.43 v 29.81 l -0.29,0.11 -15.44,-17.11 -15.64,17.32 V -52.2 h -10.48 v 52.19 c 1.1,0 2.16,0.06 3.21,0 0.35,0 0.71,-0.45 1,-0.76 l 21.08,-24 c 0.23,-0.27 0.48,-0.52 0.86,-0.92 0.46,0.51 0.9,1 1.33,1.48 6.72,7.627 13.43,15.267 20.13,22.92 0.663,0.979 1.829,1.493 3,1.32 C -1.115,-0.021 -0.557,-0.031 0,0"
             style="fill:#ffffff;fill-opacity:1;fill-rule:nonzero;stroke:none"
             id="path26" /></g><g
           id="g28"
           transform="translate(380.5098,73.308)"><path
             d="m 0,0 h 10.471 v -1.38 -29 c 0,-7.62 4.88,-10.86 10.75,-11.3 1.779,-0.137 3.57,-0.003 5.309,0.4 5.43,1.26 8.26,5 8.27,10.54 v 29.2 1.5 h 10.53 v -1.39 c 0,-10.21 -0.09,-20.42 0,-30.63 0.11,-8.69 -4.12,-14.7 -11.75,-17.919 -9.55,-4 -19,-3.421 -27.309,3.399 -4.08,3.206 -6.424,8.134 -6.34,13.32 V -0.6 C -0.05,-0.45 -0.02,-0.29 0,0"
             style="fill:#ffffff;fill-opacity:1;fill-rule:nonzero;stroke:none"
             id="path30" /></g><g
           id="g32"
           transform="translate(342.9399,52.2948)"><path
             d="m 0,0 h 2.15 c 4.56,0 9.13,-0.05 13.69,0.13 3.24,0.13 5.12,2.23 5.26,5.35 0.282,2.664 -1.649,5.052 -4.312,5.333 -0.186,0.02 -0.371,0.029 -0.558,0.027 C 10.93,11.13 5.6,11 0.291,11.05 0.22,11.05 0.16,10.97 0,10.87 Z m -10.4,20.78 c 0.099,0.045 0.203,0.078 0.31,0.1 8.46,0 16.92,0 25.39,-0.11 2.022,-0.092 4.021,-0.466 5.94,-1.11 5.78,-1.79 9,-5.94 9.33,-12 0.144,-2.347 -0.037,-4.702 -0.54,-7 -1.34,-5.76 -5.44,-8.749 -11,-9.86 -2.185,-0.403 -4.399,-0.628 -6.62,-0.67 -3.65,-0.11 -7.31,0 -11,0 H -0.01 V -31.33 H -10.4 Z"
             style="fill:#ffffff;fill-opacity:1;fill-rule:nonzero;stroke:none"
             id="path34" /></g><g
           id="g36"
           transform="translate(472.8496,66.349)"><path
             d="m 0,0 -7,-7 c -1.598,1.849 -3.746,3.139 -6.13,3.68 -2.794,0.684 -5.724,0.577 -8.46,-0.31 -0.948,-0.286 -1.806,-0.813 -2.49,-1.53 -2.26,-2.58 -2.109,-5.57 1.19,-7 2.196,-0.905 4.493,-1.543 6.84,-1.9 3.546,-0.54 6.966,-1.708 10.101,-3.45 5.3,-3 7.05,-7.761 6.689,-13.461 -0.359,-5.699 -4.12,-9.319 -8.849,-12 -4.17,-2.359 -8.741,-2.67 -13.401,-2.409 -6.084,0.241 -11.898,2.576 -16.46,6.609 -0.33,0.291 -0.639,0.601 -0.84,0.791 l 7,7 c 0.474,-0.48 0.986,-0.921 1.531,-1.32 4.618,-3.195 10.435,-4.125 15.819,-2.53 2.215,0.527 3.793,2.484 3.841,4.76 0.206,2.256 -1.038,4.394 -3.101,5.33 -2.349,1.23 -4.929,1.429 -7.49,1.78 -3.424,0.491 -6.73,1.6 -9.76,3.27 -3.424,1.789 -5.632,5.27 -5.79,9.13 -0.62,7.38 2.42,12.16 9.641,15.56 4.22,2 8.63,2.1 13.159,1.73 C -8.765,6.318 -3.894,4.045 -0.239,0.33 -0.151,0.226 -0.071,0.116 0,0"
             style="fill:#ffffff;fill-opacity:1;fill-rule:nonzero;stroke:none"
             id="path38" /></g><g
           id="g40"
           transform="translate(242.8101,20.9261)"><path
             d="m 0,0 h -10.5 v 1.41 23.361 c -0.022,0.812 -0.287,1.598 -0.76,2.259 -5.8,8 -11.66,16 -17.51,24 -0.25,0.34 -0.48,0.7 -0.86,1.25 h 1.45 9.78 c 0.708,0.064 1.39,-0.287 1.75,-0.9 3.56,-5.07 7.16,-10.11 10.74,-15.16 l 0.7,-1 6.27,8.6 c 1.84,2.54 3.67,5.09 5.54,7.61 0.242,0.383 0.628,0.653 1.07,0.75 3.76,0.06 7.53,0 11.54,0 -0.37,-0.51 -0.6,-0.86 -0.85,-1.19 -5.84,-8 -11.7,-15.94 -17.51,-24 C 0.365,26.296 0.09,25.477 0.06,24.63 0,16.88 0.06,9.13 0.06,1.38 Z"
             style="fill:#ffffff;fill-opacity:1;fill-rule:nonzero;stroke:none"
             id="path42" /></g><g
           id="g44"
           transform="translate(169.3901,73.1698)"><path
             d="M 0,0 H 10.36 V -42.47 H 38.2 V -52.2 H 0 Z"
             style="fill:#ffffff;fill-opacity:1;fill-rule:nonzero;stroke:none"
             id="path46" /></g></g></g><g
       id="g48"><g
         id="g50"><g
           id="g56"><g
             id="g58"><path
               d="m 500.66,12.975 h 5.25 v 68.189 h -5.25 z"
               style="fill:url(#linearGradient64);stroke:none"
               id="path66" /></g></g></g></g><g
       id="g68"><g
         id="g70"
         clip-path="url(#clipPath74)"><g
           id="g76"
           transform="translate(94.3521,46.8851)"><path
             d="m 0,0 c 0,-24.63 -19.967,-44.597 -44.597,-44.597 -24.631,0 -44.597,19.967 -44.597,44.597 0,24.63 19.966,44.597 44.597,44.597 C -19.967,44.597 0,24.63 0,0"
             style="fill:#14273f;fill-opacity:1;fill-rule:nonzero;stroke:none"
             id="path78" /></g></g></g><g
       id="g80"><g
         id="g82"><g
           id="g88"><g
             id="g90"><path
               d="M 4.374,46.885 C 4.374,21.821 24.691,1.504 49.755,1.504 v 0 c 25.063,0 45.38,20.317 45.38,45.381 v 0 c 0,25.064 -20.317,45.381 -45.38,45.381 v 0 C 24.691,92.266 4.374,71.949 4.374,46.885 M 32.724,6.566 c -5.211,2.205 -9.89,5.36 -13.91,9.378 v 0 c -4.019,4.02 -7.173,8.7 -9.378,13.91 v 0 C 7.155,35.248 5.999,40.978 5.999,46.885 v 0 c 0,5.908 1.156,11.638 3.437,17.031 v 0 c 2.205,5.211 5.359,9.89 9.378,13.91 v 0 c 4.02,4.018 8.699,7.174 13.91,9.378 v 0 c 5.393,2.28 11.123,3.438 17.031,3.438 v 0 c 5.907,0 11.638,-1.158 17.031,-3.438 v 0 c 5.21,-2.204 9.89,-5.36 13.909,-9.378 v 0 c 4.019,-4.02 7.174,-8.699 9.378,-13.91 v 0 c 2.281,-5.393 3.438,-11.123 3.438,-17.031 v 0 c 0,-5.907 -1.157,-11.637 -3.438,-17.031 v 0 c -2.204,-5.21 -5.359,-9.89 -9.378,-13.91 v 0 C 76.676,11.926 71.996,8.771 66.786,6.566 v 0 C 61.393,4.286 55.662,3.129 49.755,3.129 v 0 c -5.908,0 -11.638,1.157 -17.031,3.437"
               style="fill:url(#linearGradient98);stroke:none"
               id="path100" /></g></g></g></g><g
       id="g102"><g
         id="g104"><g
           id="g110"><g
             id="g112"><path
               d="m 19.605,46.885 c 0,-16.651 13.499,-30.149 30.15,-30.149 v 0 c 16.651,0 30.15,13.498 30.15,30.149 v 0 c 0,16.651 -13.499,30.15 -30.15,30.15 v 0 c -16.651,0 -30.15,-13.499 -30.15,-30.15"
               style="fill:url(#linearGradient120);stroke:none"
               id="path122" /></g></g></g></g><g
       id="g124"><g
         id="g126"
         clip-path="url(#clipPath130)"><g
           id="g132"
           transform="translate(79.9043,46.8851)"><path
             d="m 0,0 c 0,-16.651 -13.499,-30.149 -30.149,-30.149 -16.652,0 -30.15,13.498 -30.15,30.149 0,16.651 13.498,30.15 30.15,30.15 C -13.499,30.15 0,16.651 0,0 Z"
             style="fill:none;stroke:url(#linearGradient138);stroke-width:1;stroke-linecap:butt;stroke-linejoin:miter;stroke-miterlimit:10;stroke-dasharray:none;stroke-opacity:1"
             id="path140" /></g></g></g><g
       id="g142"><g
         id="g144"><g
           id="g150"><g
             id="g152"><path
               d="m 19.107,46.885 c 0,-16.926 13.721,-30.647 30.648,-30.647 v 0 c 16.926,0 30.647,13.721 30.647,30.647 v 0 c 0,16.927 -13.721,30.648 -30.647,30.648 v 0 C 32.828,77.533 19.107,63.812 19.107,46.885 M 29.232,26.363 c -5.481,5.482 -8.5,12.77 -8.5,20.522 v 0 c 0,7.752 3.019,15.04 8.5,20.522 v 0 c 5.483,5.482 12.77,8.501 20.523,8.501 v 0 c 7.751,0 15.041,-3.019 20.522,-8.501 v 0 c 5.481,-5.482 8.5,-12.77 8.5,-20.522 v 0 c 0,-7.752 -3.019,-15.04 -8.5,-20.522 v 0 C 64.796,20.881 57.506,17.862 49.755,17.862 v 0 c -7.753,0 -15.04,3.019 -20.523,8.501"
               style="fill:url(#linearGradient160);stroke:none"
               id="path162" /></g></g></g></g><g
       id="g164"><g
         id="g166"
         clip-path="url(#clipPath170)"><g
           id="g172"
           transform="translate(81.5571,54.5091)"><path
             d="m 0,0 c 0.579,-2.43 0.887,-4.922 0.916,-7.417 -0.019,-1.352 -0.055,-2.706 -0.235,-4.047 -0.02,-0.165 0.039,-0.332 0.162,-0.468 0.123,-0.134 0.301,-0.226 0.493,-0.253 1.143,-0.157 2.388,-0.329 3.631,-0.501 0.975,-0.134 1.95,-0.27 2.876,-0.398 -0.064,-0.443 -0.15,-0.885 -0.222,-1.328 L 7.509,-15.076 C 7.47,-15.297 7.417,-15.516 7.372,-15.734 7.278,-16.172 7.185,-16.608 7.092,-17.043 6.986,-17.475 6.869,-17.9 6.758,-18.325 6.702,-18.537 6.646,-18.75 6.589,-18.964 6.531,-19.177 6.458,-19.386 6.393,-19.598 6.256,-20.02 6.12,-20.444 5.983,-20.87 5.835,-21.292 5.668,-21.707 5.509,-22.126 l -0.243,-0.625 c -0.08,-0.21 -0.181,-0.409 -0.27,-0.614 l -2.025,0.868 c 0.945,2.211 1.683,4.511 2.194,6.861 0.086,0.392 -0.166,0.771 -0.563,0.848 l -3.587,0.709 c -0.396,0.076 -0.778,-0.133 -0.851,-0.468 -0.531,-2.436 -1.339,-4.814 -2.405,-7.079 l -0.46,-0.908 c -0.153,-0.302 -0.297,-0.61 -0.473,-0.9 -0.339,-0.586 -0.659,-1.184 -1.037,-1.746 -0.09,-0.139 -0.11,-0.315 -0.059,-0.49 0.052,-0.175 0.172,-0.334 0.334,-0.441 0.963,-0.637 2.011,-1.329 3.058,-2.022 0.82,-0.544 1.641,-1.087 2.42,-1.603 -0.237,-0.381 -0.515,-0.736 -0.771,-1.104 l -0.392,-0.548 -0.195,-0.273 -0.206,-0.266 c -0.276,-0.352 -0.551,-0.704 -0.825,-1.053 l -0.205,-0.262 -0.216,-0.252 c -0.144,-0.168 -0.288,-0.335 -0.431,-0.501 -0.143,-0.166 -0.287,-0.333 -0.431,-0.5 l -0.217,-0.251 -0.229,-0.241 c -0.307,-0.321 -0.616,-0.643 -0.925,-0.966 -0.153,-0.164 -0.314,-0.318 -0.479,-0.471 l -0.491,-0.46 c -0.329,-0.304 -0.65,-0.617 -1,-0.895 l -1.448,1.66 c 1.812,1.582 3.472,3.338 4.948,5.237 0.248,0.315 0.188,0.763 -0.141,1.007 l -2.928,2.189 c -0.32,0.239 -0.757,0.217 -0.971,-0.052 -1.533,-1.966 -3.288,-3.758 -5.225,-5.332 l -0.805,-0.618 -0.402,-0.309 c -0.136,-0.101 -0.278,-0.193 -0.416,-0.29 l -0.833,-0.58 c -0.282,-0.188 -0.574,-0.36 -0.859,-0.541 -0.141,-0.088 -0.235,-0.238 -0.264,-0.419 -0.029,-0.181 0.009,-0.377 0.109,-0.544 0.589,-0.993 1.229,-2.072 1.87,-3.152 0.502,-0.847 1.003,-1.694 1.48,-2.498 -0.392,-0.217 -0.784,-0.435 -1.177,-0.653 -0.196,-0.108 -0.391,-0.221 -0.589,-0.326 l -0.6,-0.302 c -0.401,-0.198 -0.795,-0.407 -1.196,-0.595 -0.405,-0.183 -0.808,-0.364 -1.208,-0.543 -0.397,-0.188 -0.811,-0.342 -1.223,-0.505 -0.207,-0.08 -0.414,-0.161 -0.621,-0.243 -0.208,-0.082 -0.415,-0.163 -0.629,-0.23 -0.424,-0.141 -0.849,-0.281 -1.274,-0.422 -0.106,-0.034 -0.212,-0.071 -0.32,-0.102 l -0.324,-0.089 -0.647,-0.175 -0.586,2.124 c 2.318,0.64 4.575,1.5 6.73,2.565 0.359,0.179 0.498,0.615 0.311,0.972 l -1.683,3.246 c -0.187,0.359 -0.588,0.525 -0.896,0.371 -1.113,-0.566 -2.275,-1.032 -3.443,-1.473 -0.294,-0.105 -0.593,-0.197 -0.889,-0.296 l -0.444,-0.149 -0.223,-0.073 -0.225,-0.062 -0.903,-0.251 c -0.15,-0.041 -0.3,-0.088 -0.452,-0.124 l -0.457,-0.103 -0.99,-0.227 -0.999,-0.177 -0.5,-0.09 c -0.167,-0.029 -0.336,-0.044 -0.503,-0.068 l -1.007,-0.129 c -0.165,-0.027 -0.316,-0.107 -0.421,-0.255 -0.104,-0.147 -0.154,-0.338 -0.136,-0.532 0.102,-1.149 0.213,-2.4 0.323,-3.651 0.087,-0.98 0.173,-1.961 0.255,-2.891 -0.447,-0.033 -0.895,-0.066 -1.343,-0.098 -0.448,-0.015 -0.897,-0.028 -1.344,-0.043 -0.224,-0.006 -0.447,-0.02 -0.67,-0.019 -0.223,0.002 -0.446,0.005 -0.668,0.007 -0.444,0.008 -0.886,0.003 -1.325,0.022 -0.875,0.056 -1.766,0.083 -2.653,0.202 l -0.668,0.076 c -0.222,0.027 -0.445,0.049 -0.666,0.09 -0.441,0.077 -0.883,0.153 -1.323,0.229 l 0.395,2.168 c 2.366,-0.433 4.775,-0.637 7.18,-0.61 0.4,0.013 0.714,0.35 0.7,0.754 l -0.113,3.654 c -0.014,0.403 -0.304,0.722 -0.647,0.711 -2.495,-0.035 -4.99,0.241 -7.424,0.778 -0.664,0.128 -1.313,0.325 -1.966,0.498 -0.329,0.08 -0.646,0.2 -0.969,0.301 -0.321,0.107 -0.645,0.206 -0.965,0.318 -0.154,0.06 -0.329,0.045 -0.488,-0.042 -0.158,-0.086 -0.286,-0.238 -0.355,-0.419 -0.409,-1.079 -0.854,-2.254 -1.299,-3.428 -0.349,-0.92 -0.698,-1.84 -1.03,-2.714 -0.416,0.168 -0.838,0.321 -1.25,0.497 -0.41,0.182 -0.82,0.362 -1.229,0.543 -0.203,0.093 -0.411,0.175 -0.61,0.275 -0.2,0.098 -0.399,0.198 -0.598,0.296 -0.397,0.198 -0.792,0.395 -1.184,0.59 -0.382,0.214 -0.767,0.43 -1.154,0.647 -0.194,0.108 -0.387,0.217 -0.581,0.327 -0.189,0.119 -0.377,0.238 -0.566,0.357 -0.377,0.241 -0.755,0.483 -1.132,0.724 -0.363,0.262 -0.727,0.523 -1.089,0.784 l 1.293,1.784 c 1.947,-1.413 4.028,-2.638 6.204,-3.661 0.366,-0.162 0.795,0.006 0.958,0.375 l 1.488,3.34 c 0.163,0.369 0.04,0.782 -0.275,0.921 -2.272,1.053 -4.403,2.384 -6.365,3.922 -0.264,0.212 -0.534,0.415 -0.793,0.632 l -0.763,0.669 -0.382,0.333 -0.363,0.353 -0.73,0.704 c -0.119,0.115 -0.279,0.182 -0.46,0.171 -0.179,-0.009 -0.36,-0.089 -0.5,-0.224 -0.837,-0.794 -1.747,-1.661 -2.656,-2.526 -0.713,-0.678 -1.426,-1.356 -2.104,-2 -0.304,0.33 -0.609,0.66 -0.912,0.991 -0.291,0.342 -0.582,0.684 -0.872,1.025 -0.143,0.172 -0.296,0.336 -0.431,0.513 -0.137,0.176 -0.274,0.352 -0.411,0.527 -0.27,0.352 -0.551,0.694 -0.807,1.051 -0.503,0.716 -1.033,1.433 -1.494,2.2 l -0.357,0.568 -0.177,0.285 -0.165,0.293 c -0.216,0.393 -0.432,0.784 -0.648,1.176 l 1.941,1.042 c 1.138,-2.119 2.477,-4.131 3.995,-5.996 0.26,-0.306 0.719,-0.341 1.026,-0.079 l 2.79,2.363 c 0.307,0.262 0.376,0.687 0.153,0.948 -1.577,1.933 -2.917,4.059 -4.019,6.299 l -0.228,0.454 -0.205,0.465 -0.41,0.93 c -0.127,0.313 -0.243,0.632 -0.366,0.947 -0.122,0.315 -0.249,0.63 -0.348,0.954 -0.051,0.158 -0.175,0.284 -0.343,0.354 -0.167,0.069 -0.366,0.075 -0.551,0.015 -1.098,-0.354 -2.294,-0.74 -3.488,-1.126 -0.937,-0.301 -1.874,-0.603 -2.764,-0.89 l -0.205,0.64 -0.179,0.65 c -0.117,0.432 -0.244,0.863 -0.356,1.296 -0.197,0.872 -0.426,1.733 -0.569,2.599 -0.344,1.719 -0.536,3.521 -0.611,5.305 l 2.201,0.1 c 0.11,-2.403 0.449,-4.794 1.012,-7.132 0.083,-0.392 0.49,-0.62 0.881,-0.517 l 3.538,0.922 c 0.39,0.103 0.628,0.454 0.558,0.791 -0.579,2.43 -0.887,4.923 -0.915,7.417 0.018,1.352 0.055,2.706 0.235,4.048 0.019,0.164 -0.04,0.332 -0.163,0.467 -0.123,0.135 -0.3,0.227 -0.493,0.253 -1.143,0.158 -2.387,0.329 -3.631,0.5 -0.975,0.136 -1.949,0.271 -2.876,0.399 0.064,0.444 0.15,0.886 0.222,1.329 l 0.113,0.664 c 0.038,0.221 0.092,0.439 0.136,0.658 0.094,0.437 0.187,0.874 0.281,1.308 0.105,0.432 0.223,0.858 0.333,1.283 0.056,0.212 0.113,0.424 0.169,0.638 0.058,0.213 0.131,0.422 0.197,0.634 0.136,0.422 0.272,0.847 0.409,1.272 0.148,0.422 0.315,0.837 0.474,1.256 l 0.244,0.626 c 0.079,0.209 0.18,0.409 0.269,0.613 l 2.026,-0.868 c -0.946,-2.21 -1.684,-4.511 -2.195,-6.861 -0.085,-0.391 0.166,-0.771 0.563,-0.848 l 3.587,-0.708 c 0.396,-0.077 0.778,0.132 0.852,0.467 0.53,2.437 1.338,4.814 2.404,7.079 l 0.46,0.908 c 0.154,0.302 0.298,0.61 0.473,0.9 0.339,0.586 0.659,1.185 1.038,1.746 0.089,0.14 0.11,0.316 0.058,0.49 -0.052,0.175 -0.172,0.334 -0.334,0.441 -0.963,0.637 -2.01,1.33 -3.057,2.022 -0.821,0.544 -1.641,1.087 -2.421,1.604 0.237,0.38 0.515,0.735 0.772,1.103 l 0.391,0.548 0.195,0.274 0.206,0.265 c 0.276,0.352 0.551,0.704 0.825,1.053 l 0.205,0.263 0.216,0.252 c 0.144,0.167 0.288,0.334 0.431,0.501 0.143,0.166 0.287,0.332 0.431,0.499 l 0.218,0.251 0.229,0.241 c 0.307,0.321 0.615,0.643 0.924,0.967 0.153,0.164 0.315,0.318 0.479,0.47 l 0.491,0.46 c 0.329,0.303 0.651,0.617 1,0.896 l 1.448,-1.66 c -1.812,-1.582 -3.472,-3.339 -4.948,-5.238 -0.248,-0.314 -0.188,-0.763 0.141,-1.007 l 2.928,-2.189 c 0.32,-0.238 0.758,-0.217 0.971,0.053 1.533,1.966 3.289,3.758 5.225,5.331 l 0.806,0.617 0.401,0.311 c 0.137,0.1 0.278,0.193 0.416,0.29 l 0.834,0.579 c 0.281,0.188 0.573,0.36 0.858,0.541 0.141,0.088 0.236,0.239 0.265,0.42 0.029,0.18 -0.01,0.377 -0.109,0.543 -0.59,0.993 -1.23,2.073 -1.871,3.152 -0.502,0.847 -1.003,1.694 -1.48,2.498 0.392,0.218 0.785,0.435 1.177,0.653 0.197,0.109 0.391,0.22 0.589,0.326 l 0.6,0.302 c 0.401,0.198 0.795,0.407 1.197,0.596 0.405,0.182 0.808,0.363 1.207,0.543 0.397,0.187 0.811,0.341 1.223,0.504 0.207,0.081 0.414,0.162 0.622,0.243 0.207,0.082 0.415,0.163 0.628,0.23 0.424,0.141 0.849,0.282 1.274,0.423 0.107,0.033 0.212,0.071 0.32,0.102 l 0.324,0.089 0.647,0.175 0.587,-2.125 c -2.318,-0.639 -4.575,-1.5 -6.731,-2.565 -0.358,-0.179 -0.497,-0.614 -0.31,-0.972 l 1.682,-3.246 c 0.187,-0.358 0.589,-0.525 0.897,-0.371 1.113,0.567 2.274,1.032 3.442,1.474 0.294,0.104 0.593,0.196 0.889,0.296 l 0.444,0.148 0.223,0.074 0.226,0.062 0.902,0.251 c 0.151,0.041 0.3,0.088 0.452,0.123 l 0.457,0.103 0.99,0.227 1,0.178 0.499,0.089 c 0.167,0.029 0.336,0.045 0.504,0.068 l 1.007,0.13 c 0.164,0.026 0.315,0.106 0.42,0.255 0.105,0.146 0.154,0.337 0.137,0.531 -0.102,1.149 -0.213,2.4 -0.324,3.651 -0.086,0.98 -0.173,1.961 -0.255,2.892 0.447,0.032 0.895,0.065 1.343,0.097 0.449,0.015 0.897,0.029 1.344,0.044 0.224,0.005 0.448,0.019 0.67,0.018 0.223,-0.002 0.446,-0.005 0.668,-0.007 0.444,-0.008 0.887,-0.003 1.325,-0.021 0.875,-0.057 1.766,-0.084 2.654,-0.202 l 0.667,-0.077 c 0.222,-0.027 0.445,-0.048 0.666,-0.09 0.442,-0.077 0.883,-0.153 1.323,-0.229 l -0.395,-2.168 c -2.366,0.433 -4.774,0.637 -7.18,0.61 -0.4,-0.012 -0.713,-0.35 -0.699,-0.753 l 0.112,-3.655 c 0.014,-0.403 0.304,-0.722 0.647,-0.71 2.495,0.035 4.99,-0.242 7.424,-0.779 0.665,-0.128 1.313,-0.325 1.966,-0.498 0.33,-0.08 0.647,-0.199 0.97,-0.301 0.32,-0.107 0.644,-0.206 0.964,-0.318 0.155,-0.06 0.33,-0.044 0.488,0.042 0.158,0.087 0.287,0.238 0.355,0.419 0.409,1.08 0.854,2.254 1.299,3.428 0.349,0.92 0.699,1.84 1.03,2.714 0.416,-0.168 0.838,-0.321 1.25,-0.497 0.411,-0.181 0.82,-0.362 1.229,-0.543 0.204,-0.092 0.412,-0.175 0.611,-0.275 0.199,-0.098 0.398,-0.197 0.597,-0.295 0.397,-0.199 0.792,-0.395 1.184,-0.591 0.382,-0.214 0.768,-0.429 1.154,-0.646 0.194,-0.109 0.387,-0.219 0.581,-0.328 0.189,-0.119 0.378,-0.238 0.567,-0.357 0.376,-0.241 0.754,-0.482 1.131,-0.723 0.364,-0.262 0.727,-0.524 1.09,-0.785 l -1.294,-1.784 c -1.946,1.413 -4.028,2.638 -6.204,3.661 -0.366,0.163 -0.795,-0.006 -0.958,-0.375 l -1.487,-3.34 c -0.164,-0.369 -0.04,-0.782 0.274,-0.92 2.272,-1.054 4.404,-2.384 6.366,-3.922 0.263,-0.212 0.533,-0.415 0.793,-0.633 l 0.762,-0.668 0.382,-0.334 0.364,-0.353 0.729,-0.704 c 0.12,-0.115 0.279,-0.182 0.46,-0.171 0.18,0.009 0.36,0.089 0.501,0.224 0.836,0.795 1.746,1.661 2.655,2.526 0.714,0.678 1.427,1.356 2.105,2 0.303,-0.33 0.608,-0.66 0.912,-0.99 0.291,-0.343 0.582,-0.684 0.872,-1.025 0.143,-0.172 0.295,-0.337 0.431,-0.514 0.137,-0.176 0.273,-0.351 0.41,-0.526 0.27,-0.353 0.551,-0.695 0.807,-1.051 0.504,-0.717 1.033,-1.434 1.494,-2.2 L 2.463,13.088 2.641,12.803 2.805,12.51 C 3.021,12.118 3.238,11.726 3.454,11.335 L 1.512,10.292 c -1.137,2.12 -2.476,4.131 -3.995,5.997 -0.259,0.305 -0.719,0.34 -1.026,0.078 l -2.79,-2.363 c -0.307,-0.262 -0.376,-0.687 -0.153,-0.948 1.577,-1.933 2.918,-4.058 4.02,-6.299 L -2.205,6.303 -2,5.838 -1.59,4.909 C -1.462,4.595 -1.347,4.277 -1.223,3.961 -1.101,3.646 -0.975,3.331 -0.876,3.007 -0.824,2.849 -0.701,2.723 -0.533,2.653 -0.365,2.584 -0.167,2.578 0.018,2.638 1.117,2.993 2.312,3.378 3.506,3.764 4.443,4.066 5.38,4.368 6.27,4.654 L 6.475,4.014 6.654,3.365 C 6.772,2.932 6.898,2.501 7.011,2.069 7.207,1.196 7.436,0.335 7.579,-0.531 7.923,-2.25 8.115,-4.052 8.19,-5.836 l -2.201,-0.1 C 5.88,-3.533 5.54,-1.142 4.977,1.197 4.894,1.589 4.487,1.817 4.096,1.713 L 0.558,0.791 C 0.168,0.688 -0.07,0.337 0,0 m 4.55,-6.697 c 0.012,-0.382 0.349,-0.69 0.753,-0.689 l 3.656,0.027 c 0.399,0.001 0.715,0.35 0.708,0.784 -0.005,0.265 -0.01,0.531 -0.015,0.797 l -0.01,0.4 -0.028,0.399 C 9.572,-4.448 9.531,-3.916 9.489,-3.385 9.419,-2.858 9.35,-2.332 9.281,-1.808 L 9.228,-1.417 C 9.207,-1.287 9.181,-1.158 9.158,-1.028 9.11,-0.771 9.063,-0.514 9.016,-0.258 8.627,1.777 8.095,3.855 7.426,5.848 7.359,6.056 7.228,6.221 7.045,6.315 6.862,6.41 6.655,6.423 6.471,6.355 5.394,5.962 4.223,5.534 3.052,5.106 2.116,4.765 1.18,4.424 0.291,4.1 c -0.419,1.12 -0.877,2.228 -1.409,3.299 -1.051,2.148 -2.326,4.185 -3.798,6.067 l 1.728,1.353 c 1.425,-1.82 2.676,-3.777 3.731,-5.835 0.17,-0.342 0.603,-0.476 0.967,-0.3 l 3.284,1.605 c 0.36,0.174 0.498,0.628 0.31,1.018 -0.945,1.9 -2.079,3.741 -3.314,5.418 -1.236,1.666 -2.633,3.293 -4.082,4.82 -0.154,0.156 -0.352,0.24 -0.557,0.247 -0.205,0.006 -0.397,-0.07 -0.533,-0.212 -0.8,-0.821 -1.669,-1.715 -2.538,-2.608 -0.696,-0.714 -1.391,-1.428 -2.051,-2.106 l -0.644,0.624 -0.674,0.592 c -0.225,0.195 -0.447,0.396 -0.675,0.588 l -0.704,0.556 c -1.878,1.476 -3.913,2.753 -6.061,3.808 l 0.967,1.969 c 2.077,-1.017 4.058,-2.23 5.905,-3.622 0.299,-0.236 0.745,-0.172 0.996,0.145 l 2.258,2.875 c 0.248,0.313 0.177,0.784 -0.16,1.057 -1.683,1.298 -3.513,2.448 -5.345,3.431 -1.839,0.951 -3.794,1.818 -5.761,2.563 -0.203,0.081 -0.42,0.065 -0.608,-0.017 -0.188,-0.083 -0.327,-0.236 -0.389,-0.423 -0.365,-1.087 -0.762,-2.268 -1.159,-3.45 -0.318,-0.944 -0.636,-1.889 -0.938,-2.785 -0.569,0.184 -1.134,0.383 -1.714,0.526 l -0.865,0.236 c -0.289,0.08 -0.583,0.131 -0.875,0.199 -2.331,0.518 -4.717,0.79 -7.106,0.809 l 0.017,2.194 c 2.312,-0.017 4.621,-0.256 6.887,-0.713 0.374,-0.082 0.748,0.171 0.838,0.565 l 0.793,3.569 c 0.089,0.389 -0.18,0.781 -0.603,0.88 -2.077,0.444 -4.226,0.702 -6.308,0.782 -2.074,0.069 -4.217,-0.011 -6.312,-0.196 -0.218,-0.023 -0.407,-0.125 -0.539,-0.28 -0.133,-0.157 -0.193,-0.354 -0.167,-0.549 0.145,-1.137 0.302,-2.374 0.46,-3.611 0.125,-0.988 0.25,-1.977 0.37,-2.915 L -36.977,26.157 -37.86,26 -38.302,25.922 c -0.147,-0.025 -0.295,-0.051 -0.44,-0.088 l -0.875,-0.199 c -2.327,-0.548 -4.6,-1.333 -6.764,-2.352 l -0.934,1.985 c 2.092,0.984 4.278,1.771 6.519,2.343 0.37,0.095 0.6,0.475 0.508,0.871 l -0.838,3.559 c -0.09,0.387 -0.504,0.633 -0.926,0.533 -2.064,-0.496 -4.101,-1.218 -6.011,-2.04 -1.908,-0.81 -3.794,-1.834 -5.6,-2.907 -0.188,-0.113 -0.316,-0.283 -0.37,-0.48 -0.053,-0.196 -0.022,-0.399 0.085,-0.564 0.622,-0.962 1.299,-2.009 1.976,-3.057 0.54,-0.837 1.08,-1.674 1.593,-2.469 -0.257,-0.152 -0.498,-0.33 -0.745,-0.499 l -0.736,-0.511 c -0.483,-0.353 -0.951,-0.726 -1.427,-1.087 -1.859,-1.502 -3.555,-3.202 -5.057,-5.06 l -1.705,1.381 c 1.455,1.796 3.083,3.452 4.854,4.938 0.292,0.247 0.322,0.704 0.071,1.018 l -2.296,2.845 c -0.251,0.313 -0.719,0.342 -1.055,0.066 -0.205,-0.169 -0.409,-0.339 -0.614,-0.509 -0.206,-0.169 -0.41,-0.341 -0.603,-0.525 -0.39,-0.364 -0.779,-0.729 -1.168,-1.093 -0.743,-0.763 -1.489,-1.518 -2.155,-2.32 -0.693,-0.773 -1.323,-1.62 -1.974,-2.453 -0.308,-0.43 -0.616,-0.861 -0.924,-1.291 l -0.232,-0.323 -0.217,-0.331 c -0.145,-0.22 -0.289,-0.44 -0.434,-0.66 -0.121,-0.183 -0.163,-0.391 -0.127,-0.591 0.037,-0.199 0.153,-0.367 0.321,-0.469 0.98,-0.596 2.045,-1.243 3.11,-1.891 0.851,-0.518 1.702,-1.036 2.511,-1.527 -0.304,-0.516 -0.594,-1.04 -0.894,-1.558 L -62.686,7.005 C -63.71,4.84 -64.508,2.573 -65.058,0.248 l -2.134,0.507 c 0.536,2.249 1.29,4.446 2.242,6.554 0.155,0.349 -0.015,0.774 -0.379,0.948 l -3.304,1.565 c -0.361,0.172 -0.796,-0.005 -0.977,-0.398 -0.111,-0.24 -0.221,-0.482 -0.332,-0.724 -0.107,-0.242 -0.225,-0.482 -0.317,-0.732 -0.191,-0.497 -0.383,-0.994 -0.574,-1.49 -0.1,-0.247 -0.176,-0.502 -0.259,-0.754 -0.081,-0.252 -0.162,-0.504 -0.243,-0.756 -0.08,-0.251 -0.159,-0.502 -0.238,-0.752 -0.068,-0.254 -0.135,-0.507 -0.202,-0.758 -0.066,-0.251 -0.132,-0.503 -0.199,-0.755 -0.066,-0.253 -0.137,-0.505 -0.187,-0.764 -0.11,-0.513 -0.221,-1.029 -0.332,-1.547 -0.104,-0.518 -0.18,-1.043 -0.274,-1.564 -0.042,-0.262 -0.096,-0.521 -0.129,-0.783 -0.034,-0.262 -0.068,-0.523 -0.102,-0.784 -0.029,-0.218 0.024,-0.424 0.144,-0.588 0.12,-0.165 0.298,-0.266 0.494,-0.285 1.141,-0.113 2.381,-0.235 3.622,-0.358 0.991,-0.099 1.983,-0.197 2.924,-0.291 -0.042,-0.296 -0.047,-0.595 -0.071,-0.893 l -0.06,-0.895 c -0.022,-0.597 -0.025,-1.195 -0.037,-1.792 0.021,-2.389 0.294,-4.777 0.811,-7.112 l -2.143,-0.473 c -0.498,2.259 -0.78,4.564 -0.84,6.875 -0.013,0.382 -0.349,0.691 -0.753,0.689 l -3.656,-0.026 c -0.4,-0.002 -0.715,-0.351 -0.709,-0.785 0.005,-0.265 0.01,-0.531 0.016,-0.797 l 0.009,-0.399 0.028,-0.4 c 0.042,-0.531 0.084,-1.063 0.126,-1.593 0.069,-0.528 0.138,-1.054 0.207,-1.577 l 0.054,-0.392 c 0.02,-0.13 0.046,-0.259 0.069,-0.389 0.048,-0.258 0.095,-0.514 0.142,-0.77 0.389,-2.034 0.921,-4.113 1.59,-6.106 0.067,-0.208 0.198,-0.373 0.381,-0.467 0.183,-0.094 0.39,-0.108 0.575,-0.04 1.076,0.393 2.247,0.821 3.419,1.249 0.936,0.341 1.872,0.682 2.76,1.006 0.42,-1.12 0.877,-2.227 1.41,-3.299 1.051,-2.148 2.325,-4.185 3.797,-6.067 l -1.727,-1.352 c -1.426,1.819 -2.677,3.776 -3.731,5.834 -0.171,0.342 -0.604,0.476 -0.967,0.3 l -3.285,-1.605 c -0.359,-0.174 -0.497,-0.627 -0.309,-1.018 0.944,-1.9 2.078,-3.741 3.313,-5.418 1.236,-1.666 2.633,-3.293 4.082,-4.82 0.155,-0.155 0.352,-0.24 0.557,-0.247 0.205,-0.006 0.397,0.07 0.533,0.212 0.8,0.821 1.669,1.715 2.539,2.608 0.695,0.714 1.39,1.428 2.05,2.106 l 0.644,-0.624 0.674,-0.591 c 0.226,-0.195 0.447,-0.397 0.676,-0.589 l 0.703,-0.556 c 1.878,-1.475 3.914,-2.753 6.062,-3.808 l -0.967,-1.969 c -2.077,1.018 -4.058,2.23 -5.905,3.622 -0.3,0.236 -0.746,0.172 -0.997,-0.144 l -2.258,-2.875 c -0.248,-0.314 -0.177,-0.785 0.16,-1.058 1.683,-1.298 3.513,-2.447 5.346,-3.431 1.839,-0.951 3.793,-1.817 5.76,-2.562 0.204,-0.081 0.421,-0.066 0.608,0.016 0.188,0.084 0.327,0.237 0.389,0.423 0.365,1.087 0.762,2.268 1.159,3.45 0.318,0.945 0.636,1.889 0.938,2.786 0.569,-0.185 1.134,-0.383 1.715,-0.527 l 0.864,-0.235 c 0.289,-0.08 0.584,-0.132 0.875,-0.199 2.332,-0.519 4.717,-0.79 7.106,-0.81 l -0.016,-2.194 c -2.312,0.017 -4.622,0.257 -6.888,0.714 -0.373,0.082 -0.748,-0.171 -0.837,-0.566 l -0.794,-3.569 c -0.088,-0.389 0.18,-0.781 0.603,-0.88 2.077,-0.443 4.226,-0.701 6.308,-0.782 2.074,-0.069 4.217,0.011 6.312,0.196 0.218,0.023 0.407,0.125 0.54,0.28 0.133,0.157 0.192,0.355 0.167,0.549 -0.146,1.138 -0.303,2.374 -0.46,3.61 -0.126,0.989 -0.251,1.978 -0.371,2.916 l 0.89,0.116 0.883,0.158 0.442,0.077 c 0.148,0.025 0.295,0.052 0.44,0.088 l 0.875,0.199 c 2.327,0.548 4.6,1.333 6.764,2.353 l 0.934,-1.986 c -2.092,-0.984 -4.278,-1.77 -6.519,-2.343 -0.37,-0.095 -0.6,-0.475 -0.508,-0.87 l 0.838,-3.559 c 0.09,-0.388 0.504,-0.633 0.926,-0.533 2.064,0.496 4.101,1.217 6.011,2.04 1.909,0.809 3.794,1.833 5.601,2.906 0.188,0.113 0.316,0.284 0.369,0.479 0.054,0.197 0.022,0.4 -0.085,0.565 -0.622,0.963 -1.299,2.01 -1.975,3.057 -0.54,0.836 -1.081,1.674 -1.594,2.469 0.258,0.153 0.498,0.33 0.745,0.499 l 0.737,0.511 c 0.483,0.353 0.95,0.727 1.427,1.087 1.858,1.503 3.554,3.202 5.056,5.06 l 1.705,-1.38 c -1.455,-1.797 -3.083,-3.452 -4.854,-4.939 -0.292,-0.247 -0.322,-0.704 -0.07,-1.017 l 2.295,-2.846 c 0.251,-0.313 0.72,-0.342 1.055,-0.066 0.205,0.169 0.41,0.339 0.615,0.509 0.205,0.169 0.409,0.341 0.602,0.526 0.39,0.364 0.78,0.728 1.169,1.092 0.743,0.763 1.488,1.518 2.154,2.321 0.693,0.772 1.323,1.619 1.975,2.452 0.307,0.431 0.615,0.861 0.923,1.292 l 0.232,0.322 0.217,0.331 c 0.145,0.22 0.29,0.441 0.434,0.66 0.122,0.183 0.163,0.391 0.127,0.591 -0.036,0.199 -0.152,0.368 -0.321,0.469 -0.979,0.596 -2.045,1.243 -3.11,1.891 -0.851,0.518 -1.702,1.036 -2.511,1.528 0.304,0.516 0.594,1.039 0.894,1.557 l 0.811,1.602 c 1.025,2.165 1.822,4.433 2.373,6.758 l 2.134,-0.508 c -0.537,-2.249 -1.291,-4.445 -2.243,-6.554 -0.155,-0.349 0.015,-0.773 0.38,-0.948 l 3.304,-1.564 c 0.36,-0.173 0.795,0.004 0.977,0.397 l 0.331,0.724 c 0.108,0.243 0.225,0.482 0.317,0.732 0.192,0.497 0.384,0.994 0.575,1.49 0.099,0.247 0.176,0.502 0.258,0.754 l 0.243,0.756 c 0.08,0.251 0.16,0.502 0.239,0.752 0.067,0.254 0.135,0.507 0.201,0.759 0.066,0.25 0.133,0.502 0.199,0.755 0.067,0.252 0.137,0.505 0.187,0.763 0.111,0.513 0.221,1.03 0.332,1.547 0.104,0.519 0.181,1.043 0.274,1.565 0.042,0.261 0.096,0.52 0.129,0.782 0.034,0.262 0.068,0.523 0.102,0.784 0.029,0.218 -0.024,0.424 -0.144,0.588 -0.12,0.165 -0.298,0.267 -0.493,0.285 -1.141,0.113 -2.381,0.236 -3.623,0.359 -0.991,0.098 -1.983,0.197 -2.924,0.29 0.043,0.297 0.047,0.595 0.071,0.893 l 0.061,0.895 c 0.021,0.597 0.024,1.195 0.037,1.792 -0.022,2.39 -0.295,4.778 -0.811,7.112 l 2.142,0.473 c 0.498,-2.259 0.78,-4.564 0.841,-6.875"
             style="fill:#d3d3d4;fill-opacity:1;fill-rule:nonzero;stroke:none"
             id="path174" /></g><g
           id="g176"
           transform="translate(54.6343,74.1166)"><path
             d="m 0,0 c 0.208,-0.345 -0.247,-1.283 -0.354,-1.582 -0.045,-0.125 -0.093,-0.259 -0.058,-0.387 0.157,-0.57 1.892,-0.462 2.347,-0.512 1.045,-0.117 2.091,-0.36 2.99,-0.928 1.476,-0.93 1.229,-1.861 2.553,-2.289 1.81,-0.585 3.5,0.749 3.892,0.186 0.507,-0.728 -0.456,-1.643 -0.88,-2.155 -0.453,-0.546 -0.686,-0.717 -0.65,-1 0.06,-0.487 0.864,-0.649 1.23,-0.776 0.768,-0.265 1.361,-0.515 2.026,-0.982 1.485,-1.044 2.97,-2.087 4.455,-3.131 0.963,-0.676 1.152,-1.479 0.869,-2.605 -0.285,-1.134 -0.826,-2.338 -1.903,-2.793 -0.239,-0.101 -0.528,-0.191 -0.618,-0.435 -0.16,-0.44 0.428,-0.79 0.696,-1.04 0.382,-0.358 0.751,-0.729 1.108,-1.112 0.697,-0.744 1.349,-1.529 1.969,-2.339 0.242,-0.317 0.435,-0.772 0.015,-1.044 -0.184,-0.119 -0.41,-0.149 -0.628,-0.176 -0.133,-0.017 -0.719,-0.049 -0.692,-0.271 0.009,-0.079 0.108,-0.108 0.188,-0.119 0.912,-0.12 1.833,-0.18 2.738,-0.358 0.603,-0.118 1.942,-0.275 1.444,-1.212 -0.165,-0.311 -0.467,-0.521 -0.698,-0.786 -0.518,-0.595 -0.637,-1.411 -0.667,-2.172 -0.032,-0.794 -0.225,-1.568 -0.479,-2.326 -0.54,-1.613 -1.422,-3.085 -2.374,-4.485 -1.529,-2.25 -3.225,-4.387 -5.068,-6.388 -1.058,-1.147 -2.298,-2.056 -3.418,-3.137 -2.84,-2.746 -2.377,-3.37 -4.261,-4.73 -1.864,-1.346 -3.825,-1.825 -6.027,-2.36 -1.963,-0.478 -3.916,-1.031 -5.927,-1.27 -2.081,-0.247 -4.059,0.066 -6.101,0.474 -2.72,0.545 -5.39,1.644 -7.114,3.915 -0.861,1.134 -1.328,2.503 -1.646,3.876 -0.127,0.548 -0.12,1.309 -0.393,1.798 -0.283,0.508 -0.975,0.71 -1.478,0.909 -4.807,1.9 -6.789,8.863 -3.705,13.025 0.648,0.875 1.545,1.339 2.432,1.927 0.08,0.053 0.168,0.119 0.179,0.216 0.051,0.473 -0.833,1.015 -1.102,1.351 -0.453,0.565 -0.766,1.234 -0.978,1.923 -0.302,0.975 -0.434,1.991 -0.507,3.006 -0.029,0.415 -0.046,0.829 -0.091,1.243 -0.029,0.265 -0.147,0.791 0.094,0.999 0.106,0.092 0.252,0.04 0.372,0.019 0.074,-0.013 0.156,-0.012 0.213,0.034 0.089,0.072 0.074,0.21 0.047,0.321 -0.14,0.555 -0.352,1.081 -0.43,1.651 -0.081,0.592 -0.025,1.197 0.106,1.778 0.236,1.048 0.664,2.083 1.184,3.021 0.391,0.706 0.834,0.061 1.247,-0.301 0.655,-0.575 0.276,1.235 0.247,1.438 -0.134,0.917 -0.193,1.873 0.098,2.768 0.402,1.233 1.398,2.164 2.356,3.038 1.022,0.932 2.045,1.865 3.068,2.797 0.766,0.699 1.539,1.404 2.423,1.946 1.512,0.928 3.267,1.025 4.995,1.094 3.092,0.125 6.212,0.021 9.288,0.408 0.282,0.036 1.066,0.286 1.309,0.115 C -0.041,0.055 -0.018,0.03 0,0"
             style="fill:#14273f;fill-opacity:1;fill-rule:nonzero;stroke:none"
             id="path178" /></g><g
           id="g180"
           transform="translate(57.7349,36.7904)"><path
             d="m 0,0 c -3.361,0.279 -6.237,1.561 -6.188,1.759 0.036,0.137 1.418,-0.063 1.564,-0.072 0.782,-0.05 1.565,-0.086 2.349,-0.078 0.452,0.006 0.915,0.029 1.331,0.204 0.066,0.028 0.136,0.064 0.173,0.125 0.082,0.132 -0.014,0.299 -0.12,0.411 -0.422,0.446 -1.04,0.654 -1.514,1.045 -0.034,0.029 -0.07,0.059 -0.081,0.101 -0.017,0.066 0.03,0.134 0.092,0.163 0.061,0.03 0.13,0.028 0.198,0.025 C -1.117,3.637 -0.077,3.263 0.895,2.792 1.987,2.264 3.021,1.492 4.189,1.157 5.494,0.782 6.28,0.898 6.287,0.753 6.301,0.465 3.272,-0.271 0,0 m 15.394,3.416 c 0,0 -6.933,-0.096 -9.015,0.341 C 2.309,4.608 1.81,4.752 1.81,4.752 1.688,4.786 1.49,4.846 1.368,4.882 c 0,0 -1.615,0.495 -2.55,0.69 C -2.183,5.778 -3.213,5.743 -4.227,5.707 -5.19,5.671 -6.161,5.638 -7.108,5.45 -8,5.276 -8.84,4.776 -9.622,4.327 c -0.853,-0.49 -2.302,-1.454 -2.302,-1.454 -0.106,-0.071 -0.111,-0.191 -0.01,-0.269 0,0 1.924,-1.491 3.339,-2.223 3.486,-1.808 9.054,-2.141 9.054,-2.141 0.126,-0.007 0.233,-0.012 0.236,-0.012 0.004,0 0.111,0.001 0.238,0.004 l 0.539,0.018 c 0.127,0.005 0.233,0.01 0.233,0.01 10e-4,0 0.099,0.007 0.215,0.014 0.119,0.007 0.405,0.027 0.402,0.023 -0.002,0 -0.007,-0.005 -0.015,-0.011 -0.029,-0.023 -0.102,-0.08 -0.182,-0.141 0,0 -1.849,-1.439 -3.281,-1.9 -0.406,-0.13 -0.81,-0.227 -1.212,-0.296 -2.174,-0.369 -4.251,0.12 -5.972,0.853 -0.234,0.099 -0.461,0.203 -0.681,0.31 -0.219,0.106 -0.43,0.217 -0.635,0.327 -0.002,0 -0.002,10e-4 -0.002,10e-4 -0.614,0.335 -1.158,0.682 -1.61,0.992 -0.153,0.106 -0.295,0.208 -0.427,0.305 -0.125,0.093 -0.241,0.181 -0.347,0.26 -0.006,0.007 -0.012,0.012 -0.019,0.017 -0.076,0.06 -0.148,0.117 -0.213,0.169 -0.235,0.187 -0.364,0.302 -0.364,0.302 -0.092,0.083 -0.248,0.091 -0.349,0.015 -0.353,-0.275 -0.705,-0.55 -1.06,-0.826 -0.1,-0.078 -0.138,-0.236 -0.084,-0.349 0,0 0.008,-0.016 0.021,-0.046 0.015,-0.031 0.031,-0.063 0.05,-0.097 0.005,-0.01 0.01,-0.02 0.017,-0.031 0.018,-0.036 0.037,-0.073 0.058,-0.111 0.01,-0.022 0.023,-0.044 0.037,-0.066 0.039,-0.069 0.083,-0.143 0.131,-0.221 0.032,-0.052 0.066,-0.107 0.102,-0.163 0.036,-0.053 0.073,-0.111 0.112,-0.165 0.154,-0.22 0.322,-0.426 0.499,-0.618 1.872,-2.052 4.816,-2.597 6.844,-2.945 3.864,-0.664 4.549,0.28 6.451,-0.867 0.961,-0.577 1.697,-1.365 3.083,-1.468 0.434,-0.032 1.224,-0.019 2.503,0.577 1.087,0.505 1.998,1.187 2.746,1.898 0.061,0.059 0.123,0.119 0.182,0.179 0.91,0.928 1.807,2.257 1.807,2.257 0.07,0.106 0.034,0.15 -0.083,0.099 0,0 -2.467,-1.077 -4.604,-1.278 -1.764,-0.168 -4.033,0.225 -4.033,0.225 -0.125,0.022 -0.125,0.052 0.002,0.07 0,0 7.803,1.032 11.688,5.016 0.304,0.311 0.599,0.641 0.879,0.991 0.488,0.604 1.141,1.662 1.141,1.662 0.067,0.108 0.018,0.195 -0.108,0.193"
             style="fill:#d4d4d4;fill-opacity:1;fill-rule:nonzero;stroke:none"
             id="path182" /></g><g
           id="g184"
           transform="translate(45.8721,20.8968)"><path
             d="m 0,0 c -0.075,-0.247 -1.703,0.047 -1.969,0.096 -2.134,0.383 -5.675,1.01 -7.763,3.864 -0.031,0.042 -0.06,0.083 -0.089,0.125 -1.058,1.505 -1.463,3.191 -1.158,3.396 0.213,0.14 0.607,-0.41 0.735,-0.52 0.299,-0.262 0.681,-0.417 1.059,-0.528 0.52,-0.153 1.068,-0.238 1.554,-0.476 0.426,-0.21 0.785,-0.526 1.141,-0.84 C -5.65,4.372 -4.807,3.63 -3.966,2.886 -3.862,2.795 -3.76,2.702 -3.656,2.611 -3.248,2.25 -2.817,1.941 -2.38,1.616 L -2.232,1.508 C -1.61,1.099 -0.586,0.484 0.044,0.143 Z"
             style="fill:#d4d4d4;fill-opacity:1;fill-rule:nonzero;stroke:none"
             id="path186" /></g><g
           id="g188"
           transform="translate(60.6011,25.3412)"><path
             d="m 0,0 c -0.015,-0.506 -1.571,-1.537 -1.662,-1.598 -2.851,-1.872 -7.277,-2.288 -11.442,-0.873 -0.69,0.235 -1.345,0.511 -1.932,0.797 -1.685,0.819 -2.822,1.728 -2.709,2.027 0.162,0.421 2.704,-0.671 6.573,-0.265 1.034,0.108 1.926,0.201 3.091,0.56 1.235,0.382 1.635,0.708 2.831,0.931 1.322,0.247 2.647,0.184 2.696,-0.071 C -2.502,1.241 -3.853,0.879 -3.794,0.604 -3.765,0.468 -3.39,0.407 -1.495,0.31 -0.369,0.252 -0.084,0.25 -0.015,0.088 -0.003,0.06 0.001,0.03 0,0"
             style="fill:#d4d4d4;fill-opacity:1;fill-rule:nonzero;stroke:none"
             id="path190" /></g><g
           id="g192"
           transform="translate(51.5776,28.9369)"><path
             d="m 0,0 c -0.01,-0.259 -2.646,-0.693 -5.904,-0.325 -1.517,0.173 -9.867,1.118 -11.087,5.67 -0.104,0.388 -0.156,0.801 -0.159,1.223 -0.007,1.084 0.314,2.218 0.918,3.093 0.809,1.166 2.096,1.824 3.659,2.622 l 0.717,0.367 c 0.582,0.233 1.471,0.128 1.976,-0.232 l 0.484,-0.326 c 0.71,-0.478 0.879,-0.583 0.879,-0.583 0.663,-0.411 1.22,-0.746 1.239,-0.743 0.02,0.003 -0.573,-0.191 -1.319,-0.418 0,0 -0.019,-0.006 -1.226,-0.616 -1.739,-0.878 -2.639,-2.04 -2.816,-1.878 -0.072,0.065 0.056,0.268 0.505,1.391 l 0.124,0.307 c 0.091,0.238 -0.45,0.265 -1.202,0.059 0,0 -0.069,-0.018 -0.727,-1.07 -1.058,-1.691 0.104,-3.645 0.216,-3.828 1.043,-1.691 1.789,-1.78 1.789,-1.78 0.774,-0.094 1.416,0.339 1.427,0.963 V 3.9 3.903 c 0.008,0.534 0.469,0.523 1.023,-0.025 0,0 1.096,-1.086 2.893,-2.018 C -5.785,1.443 -4.989,1.135 -4.243,0.902 -1.854,0.162 0.008,0.218 0,0"
             style="fill:#d4d4d4;fill-opacity:1;fill-rule:nonzero;stroke:none"
             id="path194" /></g><g
           id="g196"
           transform="translate(32.7129,36.306)"><path
             d="m 0,0 c -0.175,-2.898 1.516,-5.367 1.516,-5.367 0.072,-0.104 0.029,-0.164 -0.092,-0.132 0,0 -2.075,0.546 -3.601,1.986 -0.051,0.047 -0.099,0.096 -0.15,0.146 -1.454,1.468 -1.965,3.115 -2.154,3.996 -0.004,0.018 -0.009,0.036 -0.012,0.056 -0.111,0.612 -0.164,2.4 -0.164,2.4 -0.003,0.126 -0.007,0.23 -0.007,0.23 0,10e-4 0.018,0.104 0.041,0.228 0,0 0.192,1.045 0.502,1.728 0.957,2.098 3.066,3.213 3.066,3.213 0.113,0.059 0.267,0.025 0.344,-0.076 0,0 0.061,-0.08 0.154,-0.291 0.087,-0.201 0.104,-0.293 0.104,-0.293 0.022,-0.123 -0.05,-0.275 -0.161,-0.338 0,0 -0.486,-0.269 -0.897,-0.654 C -2.516,5.893 -2.827,4.768 -3.001,4.133 -3.315,2.982 -3.177,1.627 -3.177,1.627 c 0.013,-0.127 0.055,-0.13 0.094,-0.01 0,0 0.644,1.987 1.815,3.292 0.587,0.653 1.51,1.312 1.51,1.312 0.103,0.073 0.267,0.066 0.364,-0.015 0,0 0.402,-0.335 0.709,-0.692 0.232,-0.27 0.432,-0.576 0.432,-0.576 0.07,-0.105 0.065,-0.274 -0.01,-0.376 0,0 -1.35,-1.838 -1.655,-3.813 C 0.041,0.494 0.015,0.244 0,0"
             style="fill:#d4d4d4;fill-opacity:1;fill-rule:nonzero;stroke:none"
             id="path198" /></g><g
           id="g200"
           transform="translate(67.9658,43.4593)"><path
             d="m 0,0 c -3.279,-0.321 -5.75,0.606 -6.452,0.891 -1.818,0.736 -3.114,1.73 -3.904,2.439 -0.013,0.013 -0.023,0.027 -0.028,0.044 -0.005,0.014 -0.005,0.026 -0.005,0.027 -0.007,0.333 -0.013,0.666 -0.019,1.001 -0.002,0.074 0.073,0.122 0.139,0.091 0.402,-0.193 0.836,-0.385 1.302,-0.569 0.642,-0.253 1.597,-0.546 1.597,-0.546 0.12,-0.037 0.135,-0.006 0.035,0.069 0,0 -0.826,0.601 -1.36,1.064 -0.038,0.031 -0.077,0.065 -0.116,0.099 -0.596,0.525 -1.157,1.091 -1.687,1.682 -0.092,0.104 -0.117,0.142 -0.117,0.142 -0.066,0.107 -0.121,0.194 -0.123,0.196 0,0.002 -0.008,0.107 -0.015,0.234 0,0 -0.044,0.79 -0.024,1.216 0.003,0.042 0.005,0.087 0.027,0.123 0.069,0.11 0.486,0.117 0.606,0.132 0.266,0.036 0.53,0.053 0.797,0.055 0.784,0.003 1.448,-0.141 2.239,-0.396 C -5.146,7.36 -3.289,6.339 -3.371,6.14 -3.406,6.052 -3.783,6.205 -4.599,6.211 -5.174,6.217 -5.761,6.118 -5.761,6.118 -5.886,6.097 -5.905,6.018 -5.803,5.943 c 0,0 1.516,-1.121 2.878,-1.729 0.37,-0.166 1.145,-0.504 2.19,-0.771 2.477,-0.631 5.876,-0.525 5.876,-0.525 0.111,0.005 0.205,0.007 0.23,0.009 h 0.006 c 0.044,10e-4 0.086,10e-4 0.126,10e-4 h 0.104 c 0,0 1.059,0.01 1.169,-0.175 C 6.779,2.748 6.781,2.742 6.783,2.737 6.927,2.199 3.734,0.367 0,0"
             style="fill:#d4d4d4;fill-opacity:1;fill-rule:nonzero;stroke:none"
             id="path202" /></g><g
           id="g204"
           transform="translate(56.9048,54.0272)"><path
             d="m 0,0 c 0.128,-0.234 0.872,-0.43 1.651,-0.434 0,0 1.905,-0.011 4.216,-0.769 2.709,-0.888 4.512,-2.342 4.512,-2.342 0.607,-0.489 1.737,-0.816 2.511,-0.727 0,0 0.015,0.001 0.777,0.126 l 0.69,0.113 c 0.703,0.147 0.874,0.76 0.381,1.364 0,0 -0.022,0.026 -0.764,0.744 -1.153,1.116 -2.228,2.156 -3.846,2.799 C 8.555,1.498 7.146,1.478 5.361,1.452 4.718,1.442 3.867,1.379 2.166,1.253 1.147,1.177 1.14,1.177 1.14,1.177 0.364,1.109 -0.239,0.843 -0.198,0.584 l 0.097,-0.288 z"
             style="fill:#d4d4d4;fill-opacity:1;fill-rule:nonzero;stroke:none"
             id="path206" /></g><g
           id="g208"
           transform="translate(71.8281,58.2289)"><path
             d="m 0,0 c -0.101,-0.388 -0.297,-0.781 -0.414,-0.973 -0.523,-0.855 -1.323,-1.116 -2.293,-1.086 -1.848,0.062 -3.632,0.642 -5.439,1.031 -1.937,0.417 -4.231,0.68 -5.993,-0.426 -0.333,-0.21 -0.994,-0.829 -1.427,-0.609 -0.154,0.078 -0.274,0.269 -0.315,0.333 -0.057,0.089 -0.226,0.357 -0.181,0.614 0.053,0.294 0.356,0.39 0.86,0.742 0.197,0.139 0.457,0.338 0.741,0.616 0.029,0.029 0.008,0.08 -0.034,0.077 -1.717,-0.126 -5.838,-0.317 -9.902,0.607 -1.382,0.316 -2.735,0.753 -4.036,1.318 -0.904,0.395 -1.777,0.84 -2.63,1.341 -0.153,0.091 -0.312,0.188 -0.402,0.343 -0.094,0.162 -0.094,0.362 -0.086,0.552 0.044,1.244 0.241,2.472 0.592,3.648 0.505,1.694 1.329,3.285 2.475,4.667 0.03,0.039 -0.015,0.091 -0.058,0.069 -1.119,-0.621 -2.681,-1.682 -4.089,-3.414 -0.069,-0.085 -0.137,-0.171 -0.203,-0.259 -0.314,-0.403 -0.604,-0.825 -0.87,-1.261 -0.143,-0.237 -0.281,-0.477 -0.409,-0.722 -0.06,-0.113 -0.119,-0.227 -0.176,-0.342 -0.027,-0.055 -0.119,-0.298 -0.169,-0.18 -0.003,0.007 -0.006,0.019 -0.01,0.032 -0.174,0.699 -0.237,1.424 -0.196,2.14 0.024,0.414 0.08,0.827 0.169,1.232 0.096,0.429 0.234,0.854 0.424,1.253 0.134,0.281 0.294,0.547 0.486,0.794 0.497,0.642 1.189,1.063 1.945,1.338 1.761,0.638 3.573,0.765 5.432,0.82 1.965,0.057 3.928,-0.008 5.893,0.047 0.046,0.002 0.063,-0.061 0.021,-0.082 -1.01,-0.532 -1.863,-1.005 -2.527,-1.38 -1.318,-0.746 -2.339,-1.357 -3.575,-2.299 -0.506,-0.386 -0.932,-0.742 -1.263,-1.031 -0.041,-0.034 0.003,-0.097 0.051,-0.073 1.613,0.839 5.599,2.72 9.632,2.841 2.919,0.086 4.403,-0.795 4.775,-1.029 0.685,-0.432 1.175,-0.918 1.496,-1.289 0.003,-10e-4 0.005,-0.004 0.007,-0.008 0,-0.001 0.001,-0.005 0.001,-0.008 0.009,-0.023 -0.006,-0.052 -0.034,-0.057 -0.533,-0.112 -1.074,-0.22 -1.623,-0.328 -0.603,-0.115 -1.199,-0.226 -1.788,-0.328 -0.009,-0.002 -0.018,-0.007 -0.024,-0.013 -0.026,-0.023 -0.015,-0.073 0.031,-0.075 2.247,-0.042 6.5,-0.412 6.5,-0.412 0.125,-0.01 0.325,-0.007 0.442,0.009 l 0.08,-0.062 C -7.873,8.528 -8.793,7.86 -8.934,7.761 -9.335,7.48 -9.787,7.267 -10.26,7.136 -11.09,6.906 -11.97,6.993 -12.818,6.85 -12.839,6.846 -12.862,6.841 -12.883,6.838 -13.84,6.671 -14.417,6.437 -15.008,6.247 -17.65,5.398 -20.53,5.403 -21.339,5.405 c -0.051,0 -0.101,0 -0.15,0.002 -0.05,0 -0.102,0 -0.154,0.001 -0.109,0.002 -0.216,0.005 -0.324,0.009 -0.082,0.001 -0.169,0.004 -0.256,0.009 -0.054,0.002 -0.106,0.005 -0.16,0.008 -0.084,0.003 -0.169,0.008 -0.251,0.015 -0.012,0 -0.023,0.002 -0.034,0.002 -0.074,0.005 -0.145,0.009 -0.217,0.016 -0.097,0.006 -0.193,0.014 -0.287,0.022 -0.145,0.015 -0.288,0.03 -0.429,0.044 -0.325,0.036 -0.639,0.08 -0.944,0.127 -0.132,0.021 -0.266,0.042 -0.4,0.067 -0.163,0.029 -0.322,0.058 -0.478,0.089 -0.141,0.029 -0.28,0.059 -0.416,0.088 -0.138,0.031 -0.271,0.062 -0.403,0.093 -0.067,0.014 -0.132,0.03 -0.196,0.046 -0.197,0.049 -0.389,0.102 -0.576,0.152 -0.115,0.031 -0.231,0.065 -0.347,0.099 -0.118,0.034 -0.231,0.068 -0.344,0.104 -0.165,0.05 -0.328,0.102 -0.482,0.154 -0.016,0.005 -0.034,0.011 -0.05,0.016 -0.01,0.002 -0.02,0.005 -0.031,0.01 -0.047,0.02 -0.098,0.032 -0.146,0.051 -0.027,0.01 -0.054,0.021 -0.081,0.033 -0.013,0.006 -0.026,0.012 -0.04,0.018 -0.01,0.005 -0.023,0.015 -0.034,0.011 -0.005,-0.002 0.02,-0.028 0.021,-0.029 0.011,-0.012 0.023,-0.025 0.034,-0.037 l 0.069,-0.075 c 0.065,-0.071 0.13,-0.142 0.197,-0.21 0.012,-0.012 0.024,-0.024 0.036,-0.036 0.071,-0.07 0.333,-0.327 0.751,-0.637 0.59,-0.438 1.194,-0.76 1.547,-0.937 0,0 1.104,-0.641 2.22,-0.897 2.052,-0.47 3.691,0.16 6.904,-0.427 0.891,-0.162 2.139,-0.447 3.618,-0.983 0.122,-0.044 0.211,0.116 0.112,0.197 -0.372,0.302 -0.749,0.604 -1.129,0.906 -0.301,0.239 -0.335,0.296 -0.627,0.498 -0.243,0.167 -0.462,0.294 -0.641,0.387 -0.066,0.033 -0.058,0.13 0.01,0.157 4.841,1.887 7.218,1.38 8.448,0.717 0.45,-0.243 2.273,-1.329 4.136,-2.438 0.614,-0.367 1.129,-0.674 1.49,-0.89 C -1.34,1.937 -1.345,1.889 -1.381,1.877 -1.773,1.739 -2.322,1.584 -2.99,1.511 -4.119,1.388 -4.747,1.593 -4.777,1.474 -4.828,1.282 -3.27,0.276 -1.636,0.554 -0.769,0.701 -0.351,1.129 -0.119,0.933 0.107,0.741 0.098,0.373 0,0"
             style="fill:#d4d4d4;fill-opacity:1;fill-rule:nonzero;stroke:none"
             id="path210" /></g><g
           id="g212"
           transform="translate(32.9253,59.6898)"><path
             d="M 0,0 C 0.53,-0.572 1.03,-0.866 1.112,-0.654 1.194,-0.442 1.075,0.578 0.667,1.142 L 0.566,2.187 0.504,2.836 C 0.625,3.313 0.938,3.461 1.2,3.166 1.463,2.87 2.289,2.327 2.452,2.616 L 2.61,2.885 2.755,3.132 C 2.915,3.393 2.794,4.079 2.487,4.655 L 2.251,5.364 C 1.945,6.289 1.94,6.338 1.94,6.338 1.86,7.113 1.309,7.334 0.716,6.828 c 0,0 -0.293,-0.25 -0.872,-1.608 C -0.374,4.709 -0.854,3.537 -0.613,2.018 -0.353,0.381 0,0 0,0"
             style="fill:#898f94;fill-opacity:1;fill-rule:nonzero;stroke:none"
             id="path214" /></g><g
           id="g216"
           transform="translate(31.293,58.6981)"><path
             d="m 0,0 c -0.532,0.258 -1.171,-0.031 -1.42,-0.643 l -0.089,-0.861 c -0.075,-0.743 -0.207,-2.026 0.578,-3.214 0.819,-1.239 1.173,-1.335 1.173,-1.335 0.752,-0.206 1.374,-0.188 1.383,0.039 0.009,0.227 -0.399,1.135 -0.927,1.512 l -0.413,0.903 -0.316,0.691 c -0.011,0.533 0.227,0.85 0.53,0.703 l 0.29,-0.161 0.393,-0.218 c 0.372,-0.244 0.79,-0.201 0.928,0.094 l 0.077,0.396 0.053,0.276 c 0.004,0.246 -0.486,0.772 -1.087,1.171 l -0.639,0.358 z"
             style="fill:#898f94;fill-opacity:1;fill-rule:nonzero;stroke:none"
             id="path218" /></g><g
           id="g220"
           transform="translate(30.3301,51.1903)"><path
             d="m 0,0 c -0.429,0.184 -0.732,-0.302 -0.674,-1.079 0,0 0.028,-0.369 0.182,-0.79 0.395,-1.075 1.071,-1.754 1.571,-2.256 L 1.52,-4.568 c 0.387,-0.286 0.745,-0.395 0.795,-0.244 l 0.04,0.157 0.057,0.224 c 0.032,0.218 -0.115,0.717 -0.327,1.11 l -0.133,0.526 -0.079,0.313 c -0.03,0.291 0.042,0.499 0.158,0.463 l 0.123,-0.057 0.113,-0.053 c 0.096,-0.06 0.209,0.038 0.249,0.217 l 0.017,0.206 0.018,0.225 c -0.015,0.197 -0.609,0.621 -1.319,0.942 0,0 -0.117,0.053 -0.839,0.368 z"
             style="fill:#898f94;fill-opacity:1;fill-rule:nonzero;stroke:none"
             id="path222" /></g><g
           id="g224"
           transform="translate(54.8452,52.1029)"><path
             d="m 0,0 c -0.244,-0.411 -1.183,0.109 -2.479,-0.145 -1.133,-0.222 -1.001,-0.734 -2.264,-1.084 -1.695,-0.469 -3.062,0.144 -3.326,0.53 -0.093,0.135 -0.155,0.283 -0.155,0.283 -0.075,0.179 -0.088,0.302 -0.128,0.739 C -8.374,0.567 -8.419,0.806 -8.458,1.046 -8.49,1.254 -8.5,1.459 -8.654,1.619 -8.681,1.646 -8.711,1.672 -8.749,1.684 -8.819,1.705 -8.896,1.666 -8.944,1.609 -8.945,1.605 -8.949,1.604 -8.949,1.601 V 1.599 C -9.043,1.477 -9.04,1.312 -9.054,1.167 V 1.162 1.16 C -9.069,0.995 -9.085,0.831 -9.113,0.666 -9.165,0.346 -9.261,0.023 -9.477,-0.226 c -0.174,-0.201 -0.443,-0.338 -0.707,-0.228 -0.154,0.066 -0.274,0.194 -0.356,0.339 -0.053,0.099 -0.09,0.199 -0.118,0.302 -0.104,0.395 -0.044,0.822 -0.096,1.229 -0.01,0.072 -0.023,0.149 -0.06,0.214 -0.111,0.192 -0.297,0.119 -0.385,-0.046 -0.189,-0.36 -0.238,-0.77 -0.34,-1.158 0,0 -0.115,-0.405 -0.325,-0.746 -0.097,-0.161 -0.21,-0.278 -0.224,-0.294 0,0 -0.063,-0.067 -0.135,-0.127 -0.09,-0.075 -1.336,-1.001 -2.818,-0.721 -1.142,0.214 -0.993,0.879 -2.219,1.209 -1.234,0.331 -2.137,-0.135 -2.331,0.253 -0.105,0.213 0.12,0.542 0.572,1.203 0.301,0.438 0.593,0.867 1.113,1.295 0.113,0.092 0.242,0.19 0.85,0.524 0.199,0.109 0.447,0.244 0.764,0.413 0.109,0.059 0.211,0.112 0.306,0.163 0.783,0.416 1.051,0.552 1.025,0.65 -0.039,0.136 -0.626,0.12 -1.344,0.101 -0.203,-0.005 -0.374,-0.015 -0.374,-0.015 -0.468,-0.024 -0.502,-0.05 -0.7,-0.047 -0.288,0.003 -0.593,0.008 -0.788,0.2 -0.155,0.154 -0.179,0.368 -0.187,0.524 -0.054,0.987 0.387,2.119 0.59,2.583 0.047,0.109 0.083,0.181 0.094,0.206 0.149,0.305 0.369,0.725 0.674,1.202 2.453,-2.008 4.737,-3.171 6.356,-3.851 1.027,-0.432 2.005,-0.76 2.894,-1.02 0.783,-0.23 1.492,-0.403 2.102,-0.545 h 0.002 C -5.416,3.534 -5.203,3.485 -5.006,3.442 -4.228,3.266 -3.506,3.128 -2.863,3.019 -2.296,2.923 -1.786,2.85 -1.349,2.792 -1.053,2.403 -0.667,1.841 -0.313,1.106 0.112,0.229 0.036,0.06 0,0"
             style="fill:#898f94;fill-opacity:1;fill-rule:nonzero;stroke:none"
             id="path226" /></g><g
           id="g228"
           transform="translate(54.8765,47.6439)"><path
             d="m 0,0 c -0.005,-0.377 -0.08,-0.892 -0.392,-1.373 -0.66,-1.016 -2.108,-1.469 -3.619,-1.102 0.171,-0.146 0.363,-0.298 0.579,-0.452 0.257,-0.18 0.504,-0.33 0.731,-0.453 -0.299,-0.049 -0.665,-0.083 -1.081,-0.065 -0.269,0.009 -0.848,0.039 -1.529,0.293 -1.249,0.467 -2.395,1.509 -2.728,2.834 -0.018,0.076 -0.054,0.248 -0.158,0.255 -0.068,0.004 -0.107,-0.047 -0.13,-0.112 v -0.002 c -0.024,-0.067 -0.03,-0.145 -0.03,-0.19 -0.01,-0.667 -0.018,-1.334 -0.026,-2 -0.009,-0.651 -0.071,-1.325 -0.009,-1.97 0.005,-0.054 0.038,-0.105 0.088,-0.119 0.19,-0.052 0.366,0.433 0.428,0.551 0.144,0.275 0.308,0.624 0.713,0.439 0.107,-0.049 0.198,-0.129 0.271,-0.222 0.112,-0.139 0.246,-0.303 0.252,-0.493 0.005,-0.14 -0.05,-0.26 -0.122,-0.369 -0.32,-0.484 -0.778,-0.829 -1.105,-1.03 0,0 -0.001,0 -0.003,-0.002 -0.231,-0.143 -0.395,-0.214 -0.395,-0.214 -0.853,-0.376 -1.604,-0.369 -1.779,-0.364 0,0 -1.14,0.027 -2.414,0.864 0,0 -0.399,0.264 -0.711,0.746 -0.06,0.094 -0.127,0.214 -0.122,0.369 0.006,0.16 0.088,0.273 0.18,0.402 0.09,0.125 0.202,0.279 0.405,0.338 0.055,0.015 0.14,0.04 0.236,0.015 0.154,-0.037 0.224,-0.17 0.416,-0.479 0.31,-0.497 0.387,-0.561 0.437,-0.547 0.056,0.013 0.076,0.121 0.083,0.16 0.087,0.528 0,1.541 -0.012,1.925 -0.022,0.696 0.135,1.379 -0.026,2 -0.023,0.088 -0.079,0.302 -0.16,0.304 -0.081,0.001 -0.143,-0.205 -0.16,-0.255 -0.154,-0.474 -1.171,-2.214 -2.728,-2.834 -0.527,-0.21 -1.013,-0.25 -1.529,-0.293 -0.434,-0.037 -1.058,-0.05 -1.08,0.065 -0.014,0.076 0.246,0.15 0.732,0.453 0.393,0.249 0.593,0.367 0.577,0.452 -0.044,0.223 -1.376,-0.231 -2.491,0.301 -0.605,0.287 -1.048,0.819 -1.307,1.304 -0.257,0.482 -0.333,0.915 -0.209,1.031 0.232,0.216 1.044,-0.786 2.635,-1.156 0.523,-0.121 1.011,-0.126 1.445,-0.079 0.523,0.057 0.967,0.19 1.305,0.292 2.861,0.863 3.084,3.003 4.676,2.942 0.137,-0.005 0.261,-0.026 0.373,-0.06 0.44,-0.131 0.731,-0.46 1.088,-0.868 0.405,-0.46 0.892,-1.016 1.78,-1.492 0.195,-0.104 0.409,-0.205 0.646,-0.301 0.527,-0.211 1.77,-0.69 3.341,-0.434 0.087,0.015 0.169,0.03 0.252,0.048 h 0.004 c 1.028,0.216 1.792,0.677 2.254,1.013 C -0.075,0.105 0.001,0.066 0,0"
             style="fill:#898f94;fill-opacity:1;fill-rule:nonzero;stroke:none"
             id="path230" /></g><g
           id="g232"
           transform="translate(36.1152,48.6561)"><path
             d="M 0,0 C 0.075,0.119 0.289,0.148 0.406,0.187 0.612,0.253 0.818,0.321 1.024,0.388 1.44,0.523 1.622,0.314 1.867,0.009 2.185,-0.384 2.66,-0.643 3.161,-0.709 3.219,-0.717 3.279,-0.723 3.328,-0.756 3.611,-0.946 2.714,-1.17 2.599,-1.185 2.117,-1.248 1.622,-1.186 1.167,-1.017 0.77,-0.869 0.322,-0.631 0.059,-0.29 0.003,-0.217 -0.047,-0.125 -0.018,-0.038 -0.014,-0.024 -0.007,-0.012 0,0"
             style="fill:#898f94;fill-opacity:1;fill-rule:nonzero;stroke:none"
             id="path234" /></g><g
           id="g236"
           transform="translate(53.8306,48.6561)"><path
             d="M 0,0 C -0.075,0.119 -0.29,0.148 -0.407,0.187 -0.612,0.253 -0.818,0.321 -1.024,0.388 -1.44,0.523 -1.622,0.314 -1.868,0.009 -2.185,-0.384 -2.66,-0.643 -3.161,-0.709 -3.219,-0.717 -3.28,-0.723 -3.328,-0.756 c -0.283,-0.19 0.614,-0.414 0.729,-0.429 0.482,-0.063 0.977,-10e-4 1.432,0.168 0.397,0.148 0.844,0.386 1.108,0.727 0.056,0.073 0.105,0.165 0.077,0.252 C 0.013,-0.024 0.007,-0.012 0,0"
             style="fill:#898f94;fill-opacity:1;fill-rule:nonzero;stroke:none"
             id="path238" /></g><g
           id="g240"
           transform="translate(43.1992,53.3119)"><path
             d="M 0,0 C -0.362,-0.993 -3.348,-1.423 -4.749,-0.036 -5.2,0.411 -5.686,1.245 -5.41,1.813 c 0.199,0.109 0.447,0.244 0.764,0.413 0.109,0.059 0.211,0.112 0.306,0.163 0.672,0.084 1.486,-0.036 1.993,-0.168 C -2.144,2.168 -0.171,1.631 0.018,0.416 0.037,0.297 0.059,0.159 0,0"
             style="fill:#d4d4d4;fill-opacity:1;fill-rule:nonzero;stroke:none"
             id="path242" /></g><g
           id="g244"
           transform="translate(47.1563,55.1439)"><path
             d="m 0,0 c -0.125,-0.302 -0.359,-0.559 -0.661,-0.686 -0.196,-0.081 -0.433,-0.127 -0.544,-0.309 -0.076,-0.124 -0.07,-0.279 -0.081,-0.425 -0.022,-0.302 -0.126,-0.683 -0.361,-0.89 -0.066,-0.058 -0.15,-0.103 -0.237,-0.096 -0.228,0.019 -0.43,0.345 -0.532,0.522 -0.131,0.228 -0.212,0.484 -0.234,0.746 -0.011,0.13 -0.014,0.277 -0.109,0.366 -0.056,0.053 -0.135,0.075 -0.21,0.095 -0.814,0.22 -1.605,0.524 -2.359,0.902 -0.757,0.38 -1.476,0.837 -2.143,1.359 -0.69,0.542 -1.302,1.157 -1.841,1.85 -0.235,0.303 -0.455,0.618 -0.659,0.943 -0.034,0.055 -0.069,0.112 -0.074,0.176 -0.006,0.072 0.027,0.14 0.059,0.205 0.206,0.413 0.434,0.815 0.682,1.203 2.641,-2.182 5.725,-3.826 9.01,-4.8 C -0.208,1.135 -0.116,1.107 -0.052,1.042 -0.006,0.995 0.021,0.933 0.042,0.871 0.138,0.587 0.114,0.275 0,0"
             style="fill:#d4d4d4;fill-opacity:1;fill-rule:nonzero;stroke:none"
             id="path246" /></g><g
           id="g248"
           transform="translate(52.0293,54.3407)"><path
             d="m 0,0 c -0.221,-1.272 -1.82,-1.856 -2.872,-1.913 -0.927,-0.05 -2.32,0.26 -2.49,1.029 -0.163,0.731 0.856,1.527 1.407,1.841 0.399,0.228 0.793,0.339 1.127,0.392 h 0.002 C -2.6,1.296 -2.387,1.248 -2.19,1.204 -1.412,1.028 -0.69,0.89 -0.047,0.781 0.057,0.403 0.023,0.136 0,0"
             style="fill:#d4d4d4;fill-opacity:1;fill-rule:nonzero;stroke:none"
             id="path250" /></g><g
           id="g252"
           transform="translate(39.2715,46.017)"><path
             d="M 0,0 C -0.006,-0.091 -0.033,-0.185 -0.089,-0.258 -0.149,-0.334 -0.239,-0.382 -0.332,-0.414 -0.544,-0.487 -0.775,-0.482 -1,-0.463 -1.834,-0.39 -2.655,-0.116 -3.385,0.296 -3.616,0.426 -3.869,0.582 -4.113,0.757 -4.37,1.239 -4.446,1.672 -4.322,1.788 -4.09,2.004 -3.278,1.001 -1.687,0.632 -1.164,0.511 -0.676,0.506 -0.242,0.553 -0.076,0.433 0.018,0.249 0,0"
             style="fill:#d4d4d4;fill-opacity:1;fill-rule:nonzero;stroke:none"
             id="path254" /></g><g
           id="g256"
           transform="translate(53.1919,46.5321)"><path
             d="m 0,0 c -0.013,-0.033 -0.041,-0.059 -0.068,-0.083 -0.509,-0.433 -1.258,-0.573 -1.908,-0.556 -0.865,0.022 -1.728,0.293 -2.474,0.727 -0.164,0.096 -0.324,0.201 -0.477,0.313 -0.097,0.071 -0.266,0.2 -0.215,0.342 0.028,0.078 0.123,0.069 0.19,0.058 0.216,-0.034 0.42,-0.142 0.617,-0.232 0.014,-0.006 0.027,-0.012 0.041,-0.018 0.883,-0.357 1.818,-0.55 2.773,-0.497 0.344,0.018 0.681,0.091 1.025,0.107 C -0.407,0.165 0.072,0.199 0,0"
             style="fill:#d4d4d4;fill-opacity:1;fill-rule:nonzero;stroke:none"
             id="path258" /></g><g
           id="g260"
           transform="translate(48.2363,43.4632)"><path
             d="m 0,0 c 0.005,-0.141 -0.05,-0.261 -0.122,-0.369 -0.32,-0.485 -0.778,-0.829 -1.105,-1.03 0,0 -10e-4,0 -0.003,-0.002 -0.632,-0.255 -1.372,-0.424 -1.895,-0.007 -0.446,0.356 -0.455,0.909 -0.468,1.433 -0.029,1.231 0.043,2.454 0.082,3.683 0.021,0.7 0.016,1.454 0.258,2.117 0.091,0.25 0.242,0.392 0.4,0.455 0.44,-0.13 0.731,-0.46 1.088,-0.867 0.054,-0.345 0.018,-0.784 0.078,-1.408 V 4.003 c -0.024,-0.066 -0.03,-0.144 -0.03,-0.19 -0.01,-0.666 -0.018,-1.334 -0.026,-2 -0.008,-0.65 -0.07,-1.325 -0.008,-1.969 0.004,-0.054 0.037,-0.106 0.087,-0.119 0.19,-0.052 0.366,0.432 0.428,0.55 0.144,0.276 0.308,0.624 0.713,0.44 C -0.416,0.666 -0.325,0.586 -0.251,0.493 -0.14,0.354 -0.006,0.189 0,0"
             style="fill:#d4d4d4;fill-opacity:1;fill-rule:nonzero;stroke:none"
             id="path262" /></g><g
           id="g264"
           transform="translate(67.9658,43.4593)"><path
             d="m 0,0 c -3.279,-0.321 -5.75,0.606 -6.452,0.891 -1.818,0.736 -3.114,1.73 -3.904,2.439 -0.013,0.013 -0.023,0.027 -0.028,0.044 -0.005,0.014 -0.005,0.026 -0.005,0.027 -0.007,0.333 -0.013,0.666 -0.019,1.001 -0.002,0.074 0.073,0.122 0.139,0.091 0.402,-0.193 0.836,-0.385 1.302,-0.569 0.642,-0.253 1.597,-0.546 1.597,-0.546 0.12,-0.037 0.135,-0.006 0.035,0.069 0,0 -0.826,0.601 -1.36,1.064 1.335,-0.46 2.837,-0.879 4.494,-1.194 3.671,-0.699 6.952,-0.665 9.572,-0.39 h 0.006 c 0.044,10e-4 0.086,10e-4 0.126,10e-4 0.74,0.013 1.202,0 1.273,-0.175 C 6.779,2.748 6.781,2.742 6.783,2.737 6.927,2.199 3.734,0.367 0,0"
             style="fill:#898f94;fill-opacity:1;fill-rule:nonzero;stroke:none"
             id="path266" /></g><g
           id="g268"
           transform="translate(34.1367,30.807)"><path
             d="M 0,0 C 0,0 -2.075,0.546 -3.601,1.986 -3.651,2.033 -3.7,2.082 -3.75,2.132 -5.205,3.6 -5.715,5.247 -5.905,6.128 c -0.004,0.018 -0.009,0.036 -0.012,0.056 -0.12,0.558 -0.3,1.503 -0.17,2.63 0.086,-1.077 0.594,-2.082 1.446,-2.721 0.898,-0.677 2.09,-0.881 3.217,-0.594 C -1.599,2.601 0.092,0.132 0.092,0.132 0.164,0.028 0.122,-0.032 0,0"
             style="fill:#898f94;fill-opacity:1;fill-rule:nonzero;stroke:none"
             id="path270" /></g><g
           id="g272"
           transform="translate(39.3818,26.014)"><path
             d="m 0,0 c 0.84,-0.745 1.684,-1.487 2.524,-2.231 -1.083,0.007 -1.243,-0.025 -1.986,0.056 -1.813,0.201 -3.015,0.563 -3.869,1.143 -1.058,1.505 -1.462,3.191 -1.157,3.396 0.213,0.14 0.606,-0.41 0.735,-0.52 0.298,-0.262 0.68,-0.417 1.059,-0.529 C -2.174,1.163 -1.626,1.078 -1.141,0.84 -0.715,0.63 -0.356,0.313 0,0"
             style="fill:#898f94;fill-opacity:1;fill-rule:nonzero;stroke:none"
             id="path274" /></g><g
           id="g276"
           transform="translate(34.5864,34.2816)"><path
             d="m 0,0 c -0.104,0.389 -0.156,0.801 -0.159,1.224 0.161,-0.243 0.374,-0.537 0.64,-0.855 0.745,-0.886 2.793,-3.008 8.512,-4.26 1.547,-0.338 2.465,-0.417 3.755,-0.551 2.389,-0.741 4.251,-0.685 4.243,-0.903 C 16.981,-5.604 14.346,-6.038 11.087,-5.67 9.57,-5.497 1.221,-4.552 0,0"
             style="fill:#898f94;fill-opacity:1;fill-rule:nonzero;stroke:none"
             id="path278" /></g><g
           id="g280"
           transform="translate(60.6011,25.3412)"><path
             d="m 0,0 c -1.825,-0.802 -5.991,-1.307 -7.007,-1.429 -1.339,-0.162 -4.18,-0.425 -7.163,-0.289 -0.244,0.011 -0.521,0.026 -0.866,0.044 -1.685,0.819 -2.822,1.728 -2.709,2.027 0.162,0.421 2.704,-0.671 6.573,-0.265 1.034,0.108 1.926,0.201 3.091,0.56 1.235,0.382 1.635,0.708 2.831,0.931 1.322,0.247 2.647,0.184 2.696,-0.071 C -2.502,1.241 -3.853,0.879 -3.794,0.604 -3.765,0.468 -3.39,0.407 -1.495,0.31 -0.369,0.252 -0.084,0.25 -0.015,0.088 -0.003,0.06 0.001,0.03 0,0"
             style="fill:#898f94;fill-opacity:1;fill-rule:nonzero;stroke:none"
             id="path282" /></g><g
           id="g284"
           transform="translate(49.395,33.5921)"><path
             d="M 0,0 C -0.704,-0.018 -1.331,-0.05 -1.88,-0.087 -2.653,-0.14 -3.622,-0.228 -4.764,0.005 -4.941,0.197 -5.109,0.403 -5.263,0.623 -5.302,0.678 -5.339,0.735 -5.375,0.788 -5.411,0.844 -5.445,0.899 -5.478,0.951 -5.526,1.027 -5.57,1.103 -5.608,1.172 -5.623,1.194 -5.635,1.216 -5.645,1.238 -5.666,1.276 -5.686,1.313 -5.704,1.35 -5.71,1.36 -5.715,1.37 -5.72,1.38 c -0.019,0.034 -0.035,0.066 -0.05,0.098 -0.013,0.029 -0.022,0.045 -0.022,0.045 -0.053,0.114 -0.016,0.271 0.085,0.349 0.354,0.276 0.707,0.551 1.06,0.826 0.101,0.076 0.256,0.069 0.349,-0.014 0,0 0.129,-0.116 0.364,-0.303 0.065,-0.052 0.137,-0.109 0.213,-0.169 0.007,-0.005 0.013,-0.01 0.019,-0.017 0.106,-0.079 0.222,-0.167 0.347,-0.259 0.131,-0.098 0.274,-0.2 0.427,-0.306 0.455,-0.317 0.998,-0.661 1.61,-0.991 0,0 0,-0.001 0.002,-0.001 C -1.111,0.527 -0.9,0.416 -0.681,0.311 -0.461,0.203 -0.234,0.1 0,0"
             style="fill:#898f94;fill-opacity:1;fill-rule:nonzero;stroke:none"
             id="path286" /></g><g
           id="g288"
           transform="translate(59.4375,35.0502)"><path
             d="M 0,0 C -0.309,-0.018 -0.644,-0.029 -1.001,-0.032 -0.674,-0.022 -0.341,-0.012 0,0"
             style="fill:#898f94;fill-opacity:1;fill-rule:nonzero;stroke:none"
             id="path290" /></g><g
           id="g292"
           transform="translate(68.2466,33.2289)"><path
             d="m 0,0 c 0,0 -0.897,-1.329 -1.807,-2.258 -0.058,-0.059 -0.12,-0.12 -0.182,-0.179 -1.529,-0.267 -3.694,-0.421 -6.177,0.113 -1.972,0.426 -3.557,1.159 -4.713,1.835 0.401,0.068 0.805,0.166 1.212,0.296 1.431,0.461 3.281,1.899 3.281,1.899 0.079,0.062 0.152,0.118 0.181,0.142 1.422,0.09 2.612,0.213 3.488,0.324 2.538,0.324 4.381,0.572 6.537,1.445 0.413,0.167 0.796,0.341 1.151,0.515 -3.886,-3.985 -11.689,-5.017 -11.689,-5.017 -0.127,-0.017 -0.127,-0.048 -0.002,-0.069 0,0 2.269,-0.394 4.033,-0.226 2.138,0.201 4.604,1.279 4.604,1.279 C 0.034,0.149 0.07,0.105 0,0"
             style="fill:#898f94;fill-opacity:1;fill-rule:nonzero;stroke:none"
             id="path294" /></g><g
           id="g296"
           transform="translate(37.7568,69.5716)"><path
             d="M 0,0 C 0.28,-0.466 0.476,-1.367 1.237,-2.151 0.923,-2.555 0.634,-2.977 0.367,-3.413 0.225,-3.65 0.086,-3.89 -0.042,-4.134 c -0.06,-0.114 -0.119,-0.227 -0.176,-0.343 -0.027,-0.055 -0.118,-0.297 -0.169,-0.18 -0.003,0.008 -0.006,0.019 -0.009,0.032 -0.174,0.699 -0.238,1.424 -0.197,2.14 0.024,0.415 0.08,0.827 0.169,1.232 C -0.328,-0.824 -0.19,-0.398 0,0"
             style="fill:#898f94;fill-opacity:1;fill-rule:nonzero;stroke:none"
             id="path298" /></g><g
           id="g300"
           transform="translate(71.8281,58.2289)"><path
             d="m 0,0 c -0.101,-0.388 -0.297,-0.781 -0.414,-0.973 -0.523,-0.855 -1.323,-1.116 -2.293,-1.086 -1.848,0.062 -3.632,0.642 -5.439,1.031 -1.937,0.417 -4.231,0.68 -5.993,-0.426 -0.333,-0.21 -0.994,-0.829 -1.427,-0.609 -0.154,0.078 -0.274,0.269 -0.315,0.333 -0.057,0.089 -0.226,0.357 -0.181,0.614 0.053,0.294 0.356,0.39 0.86,0.742 0.197,0.139 0.457,0.338 0.741,0.616 0.029,0.029 0.008,0.08 -0.034,0.077 -1.717,-0.126 -5.838,-0.317 -9.902,0.607 -1.382,0.316 -2.735,0.753 -4.036,1.318 -0.904,0.395 -1.777,0.84 -2.63,1.341 -0.153,0.091 -0.312,0.188 -0.402,0.343 -0.094,0.162 -0.094,0.362 -0.086,0.552 0.044,1.244 0.241,2.472 0.592,3.648 0.2,-0.045 0.414,-0.073 0.64,-0.074 0.746,-0.009 1.116,0.268 2.117,0.697 1.367,0.586 2.452,0.832 3.78,1.132 0.349,0.08 0.678,0.143 0.988,0.196 0.618,0.104 1.397,0.209 2.407,0.261 3.643,0.19 8.799,-0.296 8.799,-0.296 0.187,-0.018 0.364,-0.035 0.53,-0.052 0,-0.001 0.001,-0.005 0.001,-0.008 0.009,-0.023 -0.006,-0.052 -0.034,-0.057 -0.533,-0.112 -1.074,-0.22 -1.623,-0.328 -0.603,-0.115 -1.199,-0.226 -1.788,-0.328 -0.009,-0.002 -0.018,-0.007 -0.024,-0.013 -0.304,-0.005 -0.637,-0.018 -1.04,-0.055 -0.939,-0.088 -1.323,-0.218 -2.546,-0.47 -3.418,-0.704 -5.49,-0.734 -5.49,-0.957 0.004,-0.094 0.598,-0.172 1.788,-0.325 2.567,-0.328 3.853,-0.494 4.027,-0.506 1.681,-0.109 1.829,0.039 4.26,-0.053 0.496,-0.019 0.923,-0.036 1.284,-0.054 -0.957,-0.167 -1.534,-0.401 -2.125,-0.591 -2.642,-0.849 -5.522,-0.844 -6.331,-0.842 -0.051,0 -0.101,0 -0.15,0.002 -0.05,0 -0.102,0 -0.154,0.001 -0.109,0.002 -0.216,0.005 -0.324,0.009 -0.086,0.001 -0.172,0.006 -0.256,0.009 -0.054,0.002 -0.106,0.005 -0.16,0.008 -0.084,0.003 -0.169,0.008 -0.251,0.015 -0.012,0 -0.023,0.002 -0.034,0.002 -0.074,0.005 -0.145,0.009 -0.217,0.016 -0.097,0.006 -0.193,0.014 -0.287,0.022 -0.145,0.015 -0.288,0.03 -0.429,0.044 -0.325,0.036 -0.639,0.08 -0.944,0.127 -0.135,0.021 -0.268,0.044 -0.4,0.067 -0.163,0.029 -0.322,0.058 -0.478,0.089 -0.141,0.029 -0.28,0.059 -0.416,0.088 -0.138,0.031 -0.271,0.062 -0.403,0.093 -0.067,0.014 -0.132,0.03 -0.196,0.046 -0.197,0.049 -0.389,0.102 -0.576,0.152 -0.118,0.032 -0.234,0.066 -0.347,0.099 -0.118,0.034 -0.231,0.068 -0.344,0.104 -0.165,0.05 -0.328,0.102 -0.482,0.154 -0.016,0.005 -0.034,0.011 -0.05,0.016 -0.01,0.002 -0.02,0.005 -0.031,0.01 -0.036,0.01 -0.075,0.025 -0.121,0.041 -0.022,0.008 -0.047,0.018 -0.073,0.027 -0.212,0.086 -0.278,0.14 -0.294,0.125 -0.066,-0.056 0.693,-1.303 1.536,-2.083 1.961,-1.815 4.901,-2.415 7.444,-2.837 1.185,-0.197 2.382,-0.331 3.581,-0.403 1.253,-0.073 2.519,-0.079 3.754,-0.333 1.254,-0.255 2.446,-0.762 3.7,-1.026 1.454,-0.303 2.937,-0.466 4.42,-0.516 0.738,-0.026 1.481,-0.023 2.212,0.086 0.609,0.091 1.123,0.346 1.706,0.496 0.073,0.019 0.151,0.035 0.224,0.014 C -0.096,0.146 -0.034,0.08 0,0"
             style="fill:#898f94;fill-opacity:1;fill-rule:nonzero;stroke:none"
             id="path302" /></g><g
           id="g304"
           transform="translate(554.0078,47.2152)"><path
             d="m 0,0 c 0,4.248 -1.065,7.449 -3.196,9.602 -2.132,2.154 -5.299,3.231 -9.502,3.231 h -5.503 v -26.022 h 4.611 c 4.515,0 7.909,1.11 10.182,3.331 C -1.136,-7.639 0,-4.353 0,0 m 4.011,0.134 c 0,-5.377 -1.459,-9.488 -4.378,-12.331 -2.919,-2.845 -7.118,-4.267 -12.599,-4.267 h -9.022 v 32.572 h 9.98 c 5.065,0 9.001,-1.404 11.808,-4.211 C 2.607,9.09 4.011,5.169 4.011,0.134"
             style="fill:#ffffff;fill-opacity:1;fill-rule:nonzero;stroke:none"
             id="path306" /></g><g
           id="g308"
           transform="translate(580.5195,44.5189)"><path
             d="m 0,0 -3.787,10.093 c -0.49,1.277 -0.996,2.844 -1.516,4.701 -0.326,-1.426 -0.794,-2.993 -1.403,-4.701 L -10.538,0 Z m 5.235,-13.768 -4.054,10.36 h -13.056 l -4.01,-10.36 h -3.832 L -6.84,18.937 h 3.186 l 12.81,-32.705 z"
             style="fill:#ffffff;fill-opacity:1;fill-rule:nonzero;stroke:none"
             id="path310" /></g><g
           id="g312"
           transform="translate(612.5352,39.4173)"><path
             d="m 0,0 c 0,-2.866 -1.04,-5.102 -3.119,-6.706 -2.08,-1.604 -4.902,-2.406 -8.466,-2.406 -3.862,0 -6.833,0.498 -8.912,1.493 v 3.653 c 1.337,-0.564 2.792,-1.01 4.367,-1.336 1.574,-0.327 3.134,-0.49 4.678,-0.49 2.525,0 4.427,0.479 5.704,1.437 1.277,0.958 1.916,2.291 1.916,3.999 0,1.128 -0.227,2.053 -0.68,2.773 -0.453,0.721 -1.211,1.385 -2.272,1.994 -1.063,0.61 -2.678,1.3 -4.846,2.072 -3.03,1.084 -5.194,2.37 -6.494,3.855 -1.3,1.485 -1.949,3.423 -1.949,5.814 0,2.511 0.942,4.508 2.829,5.994 1.886,1.484 4.381,2.228 7.485,2.228 3.238,0 6.216,-0.595 8.935,-1.783 l -1.182,-3.297 c -2.688,1.128 -5.302,1.693 -7.842,1.693 -2.005,0 -3.572,-0.431 -4.701,-1.292 -1.129,-0.862 -1.692,-2.057 -1.692,-3.587 0,-1.129 0.207,-2.053 0.623,-2.774 0.416,-0.72 1.118,-1.381 2.105,-1.982 0.989,-0.602 2.499,-1.267 4.534,-1.995 C -5.562,8.14 -3.212,6.833 -1.928,5.437 -0.643,4.04 0,2.229 0,0"
             style="fill:#ffffff;fill-opacity:1;fill-rule:nonzero;stroke:none"
             id="path314" /></g><g
           id="g316"
           transform="translate(643.9248,30.7513)"><path
             d="M 0,0 H -3.787 V 15.327 H -20.941 V 0 h -3.788 v 32.572 h 3.788 V 18.714 H -3.787 V 32.572 H 0 Z"
             style="fill:#ffffff;fill-opacity:1;fill-rule:nonzero;stroke:none"
             id="path318" /></g><g
           id="g320"
           transform="translate(656.6465,46.1683)"><path
             d="m 0,0 v -12.187 h 6.795 c 2.629,0 4.607,0.508 5.937,1.526 1.33,1.017 1.994,2.61 1.994,4.779 0,2.02 -0.679,3.505 -2.038,4.456 C 11.328,-0.476 9.26,0 6.483,0 Z m 0,3.208 h 6.238 c 2.673,0 4.597,0.419 5.77,1.259 1.174,0.839 1.761,2.253 1.761,4.244 0,1.827 -0.655,3.144 -1.961,3.955 -1.308,0.809 -3.387,1.213 -6.239,1.213 l -5.569,0 z m -3.787,13.947 h 9.2 c 4.322,0 7.449,-0.647 9.38,-1.939 1.931,-1.292 2.896,-3.334 2.896,-6.126 0,-1.931 -0.539,-3.524 -1.615,-4.779 C 14.997,3.056 13.426,2.242 11.362,1.871 V 1.648 c 4.946,-0.846 7.419,-3.446 7.419,-7.797 0,-2.912 -0.984,-5.184 -2.952,-6.818 -1.969,-1.634 -4.72,-2.45 -8.255,-2.45 H -3.787 Z"
             style="fill:#ffffff;fill-opacity:1;fill-rule:nonzero;stroke:none"
             id="path322" /></g><g
           id="g324"
           transform="translate(684.7402,47.0819)"><path
             d="m 0,0 c 0,-4.412 0.939,-7.757 2.818,-10.037 1.879,-2.28 4.608,-3.42 8.188,-3.42 3.609,0 6.334,1.136 8.176,3.409 1.841,2.272 2.762,5.622 2.762,10.048 0,4.381 -0.917,7.705 -2.751,9.97 -1.835,2.264 -4.548,3.397 -8.142,3.397 -3.61,0 -6.354,-1.14 -8.233,-3.42 C 0.939,7.667 0,4.352 0,0 m 25.955,0 c 0,-5.213 -1.318,-9.313 -3.955,-12.298 -2.636,-2.986 -6.301,-4.479 -10.994,-4.479 -4.798,0 -8.499,1.467 -11.107,4.401 -2.606,2.933 -3.909,7.073 -3.909,12.42 0,5.303 1.307,9.413 3.921,12.331 2.614,2.919 6.327,4.378 11.14,4.378 4.678,0 8.332,-1.485 10.961,-4.455 C 24.641,9.327 25.955,5.228 25.955,0"
             style="fill:#ffffff;fill-opacity:1;fill-rule:nonzero;stroke:none"
             id="path326" /></g><g
           id="g328"
           transform="translate(733.1963,44.5189)"><path
             d="m 0,0 -3.787,10.093 c -0.49,1.277 -0.996,2.844 -1.516,4.701 -0.326,-1.426 -0.794,-2.993 -1.403,-4.701 L -10.538,0 Z m 5.235,-13.768 -4.054,10.36 h -13.056 l -4.01,-10.36 h -3.832 L -6.84,18.937 h 3.186 l 12.81,-32.705 z"
             style="fill:#ffffff;fill-opacity:1;fill-rule:nonzero;stroke:none"
             id="path330" /></g><g
           id="g332"
           transform="translate(750.6182,47.5497)"><path
             d="m 0,0 h 5.19 c 2.674,0 4.635,0.531 5.882,1.593 1.248,1.061 1.871,2.655 1.871,4.779 0,2.153 -0.634,3.705 -1.904,4.656 -1.27,0.95 -3.309,1.426 -6.115,1.426 l -4.924,0 z m 0,-3.253 v -13.545 h -3.787 v 32.571 h 8.933 c 3.996,0 6.948,-0.765 8.856,-2.294 1.908,-1.53 2.863,-3.833 2.863,-6.907 0,-4.307 -2.183,-7.218 -6.551,-8.734 l 8.845,-14.636 H 14.682 L 6.795,-3.253 Z"
             style="fill:#ffffff;fill-opacity:1;fill-rule:nonzero;stroke:none"
             id="path334" /></g><g
           id="g336"
           transform="translate(797.0244,47.2152)"><path
             d="m 0,0 c 0,4.248 -1.065,7.449 -3.196,9.602 -2.132,2.154 -5.299,3.231 -9.502,3.231 h -5.503 v -26.022 h 4.611 c 4.515,0 7.909,1.11 10.182,3.331 C -1.136,-7.639 0,-4.353 0,0 m 4.011,0.134 c 0,-5.377 -1.459,-9.488 -4.378,-12.331 -2.919,-2.845 -7.118,-4.267 -12.599,-4.267 h -9.022 v 32.572 h 9.98 c 5.065,0 9.001,-1.404 11.808,-4.211 C 2.607,9.09 4.011,5.169 4.011,0.134"
             style="fill:#ffffff;fill-opacity:1;fill-rule:nonzero;stroke:none"
             id="path338" /></g></g></g></g></svg>
